<svg xmlns="http://www.w3.org/2000/svg" width="500" viewBox="0 0 375 187.5" height="250" version="1.0"><defs><clipPath id="a"><path d="M122.309 46.375h246.68v94.254h-246.68Zm0 0"/></clipPath><clipPath id="b"><path d="M139.512 46.375h212.183c9.5 0 17.203 7.703 17.203 17.203v59.844c0 9.504-7.703 17.207-17.203 17.207H139.512c-9.5 0-17.203-7.703-17.203-17.207V63.578c0-9.5 7.703-17.203 17.203-17.203Zm0 0"/></clipPath><clipPath id="c"><path d="M122.316 46.375h246.606v94.43H122.316Zm0 0"/></clipPath><clipPath id="d"><path d="M139.52 46.375h212.167c9.5 0 17.204 7.703 17.204 17.203v59.84c0 9.5-7.704 17.203-17.204 17.203H139.52c-9.504 0-17.204-7.703-17.204-17.203v-59.84c0-9.5 7.7-17.203 17.204-17.203Zm0 0"/></clipPath><clipPath id="e"><path d="M6.102 15.094h156.863v156.863H6.102Zm0 0"/></clipPath></defs><g clip-path="url(#a)"><g clip-path="url(#b)"><path fill="#ff5733" d="M122.309 46.375h246.68v94.254h-246.68Zm0 0"/></g></g><g clip-path="url(#c)"><g clip-path="url(#d)"><path fill="none" d="M139.52 46.375h212.167c9.5 0 17.204 7.703 17.204 17.203v59.84c0 9.5-7.704 17.203-17.204 17.203H139.52c-9.504 0-17.204-7.703-17.204-17.203v-59.84c0-9.5 7.7-17.203 17.204-17.203Zm0 0" stroke="#000" stroke-width="5.98426056"/></g></g><path fill="#c7003a" d="M161.184 93.473c0 42.359-34.344 76.699-76.704 76.699-42.359 0-76.703-34.34-76.703-76.7 0-42.363 34.344-76.702 76.703-76.702 42.36 0 76.704 34.34 76.704 76.703"/><g clip-path="url(#e)"><path fill="#0c1216" d="M161.184 93.473h-1.692c0 20.718-8.394 39.46-21.969 53.043-13.582 13.574-32.324 21.968-53.043 21.968-20.718 0-39.46-8.394-53.043-21.968C17.86 132.934 9.47 114.19 9.465 93.473c.004-20.72 8.394-39.465 21.973-53.043C45.02 26.852 63.761 18.46 84.48 18.457c20.72.004 39.461 8.395 53.043 21.973 13.575 13.578 21.97 32.32 21.97 53.043h3.378c0-21.641-8.777-41.25-22.96-55.43-14.18-14.184-33.79-22.961-55.43-22.961-21.641 0-41.25 8.777-55.43 22.961C14.867 52.223 6.09 71.832 6.09 93.473c0 21.64 8.777 41.25 22.96 55.43 14.18 14.179 33.79 22.956 55.43 22.956 21.641 0 41.25-8.777 55.43-22.957 14.184-14.18 22.961-33.789 22.961-55.43h-1.687"/></g><path fill="#fff" d="M149.102 93.473c0 35.687-28.934 64.617-64.622 64.617-35.687 0-64.62-28.93-64.62-64.617 0-35.688 28.933-64.625 64.62-64.625 35.688 0 64.622 28.937 64.622 64.625"/><path fill="#0c1216" d="M149.102 93.473h-1.692c0 17.382-7.039 33.105-18.43 44.5-11.394 11.39-27.117 18.43-44.5 18.43-17.382 0-33.105-7.04-44.5-18.43-11.39-11.395-18.43-27.118-18.43-44.5 0-17.387 7.04-33.106 18.43-44.5 11.395-11.391 27.118-18.434 44.5-18.434 17.383 0 33.106 7.043 44.5 18.434 11.391 11.394 18.43 27.113 18.43 44.5h3.38c0-18.309-7.427-34.895-19.423-46.891C119.375 34.586 102.785 27.16 84.48 27.16c-18.304 0-34.894 7.426-46.886 19.422-12 11.996-19.422 28.582-19.422 46.89 0 18.301 7.422 34.891 19.422 46.883 11.992 12 28.582 19.426 46.886 19.422 18.305.004 34.895-7.422 46.887-19.422 11.996-11.992 19.422-28.582 19.422-46.882h-1.687"/><path fill="#fff" d="m139.797 60.063-10.05 6.07"/><path fill="#0c1216" d="m138.922 58.617-10.05 6.07a1.694 1.694 0 0 0-.575 2.32 1.694 1.694 0 0 0 2.32.571l10.051-6.07c.8-.48 1.055-1.52.574-2.317a1.69 1.69 0 0 0-2.32-.574"/><path fill="#fff" d="m39.219 120.805-10.051 6.07"/><path fill="#0c1216" d="m38.348 119.36-10.055 6.07a1.694 1.694 0 0 0-.574 2.32 1.694 1.694 0 0 0 2.32.574l10.05-6.074a1.688 1.688 0 1 0-1.742-2.89"/><path fill="#fff" d="m117.469 37.906-5.996 10.098"/><path fill="#0c1216" d="m116.016 37.043-5.993 10.098a1.689 1.689 0 0 0 2.906 1.723l5.993-10.098c.476-.801.21-1.836-.59-2.313-.8-.476-1.84-.21-2.316.59"/><path fill="#fff" d="m57.488 138.938-5.996 10.097"/><path fill="#0c1216" d="m56.035 138.074-5.996 10.098c-.477.8-.21 1.84.59 2.316.8.473 1.84.211 2.316-.593l5.992-10.098a1.689 1.689 0 0 0-.59-2.313 1.691 1.691 0 0 0-2.312.59M149.102 91.781h-11.743c-.933 0-1.687.754-1.687 1.688 0 .933.754 1.687 1.687 1.687h11.743c.933 0 1.687-.754 1.687-1.687 0-.934-.754-1.688-1.687-1.688M31.605 91.781H19.86a1.688 1.688 0 0 0 0 3.375h11.746a1.688 1.688 0 0 0 0-3.375"/><path fill="#fff" d="m27.508 62.98 10.351 5.54"/><path fill="#0c1216" d="m26.71 64.473 10.352 5.539a1.69 1.69 0 0 0 1.594-2.98l-10.351-5.54a1.689 1.689 0 0 0-2.285.696 1.686 1.686 0 0 0 .69 2.285"/><path fill="#fff" d="m131.102 118.418 10.355 5.543"/><path fill="#0c1216" d="m130.305 119.906 10.355 5.543c.82.438 1.844.13 2.285-.691a1.69 1.69 0 0 0-.691-2.285l-10.356-5.543a1.693 1.693 0 0 0-2.285.691 1.69 1.69 0 0 0 .692 2.285"/><path fill="#fff" d="m49.453 39.168 6.367 9.867"/><path fill="#0c1216" d="m48.035 40.082 6.367 9.867a1.683 1.683 0 0 0 2.332.504 1.684 1.684 0 0 0 .504-2.332l-6.367-9.871a1.689 1.689 0 0 0-2.836 1.832"/><path fill="#fff" d="m113.14 137.906 6.368 9.867"/><path fill="#0c1216" d="m111.723 138.82 6.367 9.868a1.683 1.683 0 0 0 2.332.503 1.683 1.683 0 0 0 .504-2.332l-6.364-9.867a1.69 1.69 0 0 0-2.335-.504 1.686 1.686 0 0 0-.504 2.332M82.793 28.848v11.746a1.688 1.688 0 0 0 3.375 0V28.848a1.688 1.688 0 0 0-3.375 0M82.793 146.348v11.742a1.688 1.688 0 0 0 3.375 0v-11.742a1.688 1.688 0 0 0-3.375 0M85.465 90.512a.986.986 0 1 1-1.973 0V61.05a.986.986 0 1 1 1.973 0v29.46M106.566 116.055a1.48 1.48 0 0 1-2.09-.024l-19.574-20.05a1.476 1.476 0 1 1 2.113-2.063l19.575 20.047c.574.586.562 1.52-.024 2.09"/><path fill="#c7003a" d="M85.465 92.73c0 .563-.332 1.02-.738 1.02H43.89c-.41 0-.743-.457-.743-1.02 0-.562.332-1.015.743-1.015h40.836c.406 0 .738.453.738 1.015"/><path fill="#0c1216" d="M90.367 93.469a5.888 5.888 0 0 1-5.887 5.886 5.885 5.885 0 1 1 0-11.77 5.885 5.885 0 0 1 5.887 5.884"/></svg>