<svg xmlns="http://www.w3.org/2000/svg" width="500" viewBox="0 0 375 187.5" height="250" version="1.0"><defs><clipPath id="a"><path d="M26.164 18.7h326.344v156.448H26.164Zm0 0"/></clipPath><clipPath id="b"><path d="M43.371 18.7h291.746c9.5 0 17.203 7.702 17.203 17.202v122.043c0 9.5-7.703 17.203-17.203 17.203H43.371c-9.504 0-17.207-7.703-17.207-17.203V35.902c0-9.5 7.703-17.203 17.207-17.203Zm0 0"/></clipPath><clipPath id="c"><path d="M26.176 18.7h326.12v156.335H26.177Zm0 0"/></clipPath><clipPath id="d"><path d="M43.379 18.7h291.726c9.504 0 17.204 7.702 17.204 17.202v122.032c0 9.504-7.7 17.203-17.204 17.203H43.38c-9.5 0-17.203-7.7-17.203-17.203V35.902c0-9.5 7.703-17.203 17.203-17.203Zm0 0"/></clipPath><clipPath id="e"><path d="M36.332 99.91H340.59v65.621H36.332Zm0 0"/></clipPath><clipPath id="f"><path d="M53.535 99.91h269.649c9.5 0 17.203 7.703 17.203 17.207v31.211c0 9.5-7.703 17.203-17.203 17.203H53.535c-9.504 0-17.203-7.703-17.203-17.203v-31.21c0-9.505 7.7-17.208 17.203-17.208Zm0 0"/></clipPath><clipPath id="g"><path d="M36.34 99.91h303.68v65.824H36.34Zm0 0"/></clipPath><clipPath id="h"><path d="M53.543 99.91h269.625c9.504 0 17.203 7.703 17.203 17.203v31.211c0 9.5-7.7 17.203-17.203 17.203H53.543c-9.5 0-17.203-7.703-17.203-17.203v-31.21c0-9.5 7.703-17.204 17.203-17.204Zm0 0"/></clipPath></defs><g clip-path="url(#a)"><g clip-path="url(#b)"><path fill="#ff5733" d="M26.164 18.7h326.344v156.448H26.164Zm0 0"/></g></g><g clip-path="url(#c)"><g clip-path="url(#d)"><path fill="none" d="M43.379 18.7h291.726c9.504 0 17.203 7.702 17.203 17.202v122.032c0 9.503-7.699 17.203-17.203 17.203H43.38c-9.5 0-17.203-7.7-17.203-17.203V35.902c0-9.5 7.703-17.203 17.203-17.203Zm0 0" stroke="#000" stroke-width="5.98408"/></g></g><g clip-path="url(#e)"><g clip-path="url(#f)"><path fill="#ffd230" d="M36.332 99.91h304.004v65.621H36.332Zm0 0"/></g></g><g clip-path="url(#g)"><g clip-path="url(#h)"><path fill="none" d="M53.543 99.91h269.625c9.504 0 17.203 7.703 17.203 17.203v31.211c0 9.5-7.7 17.203-17.203 17.203H53.543c-9.5 0-17.203-7.703-17.203-17.203v-31.21c0-9.5 7.703-17.204 17.203-17.204Zm0 0" stroke="#000" stroke-width="5.98408"/></g></g><path fill="none" d="M120.176 78.434c-.742-.907-1.113-1.723-1.113-2.442 0-.726.613-1.687 1.84-2.879.706-.68 1.452-1.02 2.245-1.02.793 0 1.903.712 3.325 2.134.394.476.957.937 1.691 1.378.742.438 1.43.657 2.059.657 2.632 0 3.949-1.078 3.949-3.23 0-.653-.36-1.196-1.082-1.634-.719-.441-1.621-.765-2.7-.964a23.909 23.909 0 0 1-3.492-.957 23.296 23.296 0 0 1-3.492-1.559c-1.074-.594-1.972-1.54-2.703-2.824-.719-1.29-1.078-2.844-1.078-4.656 0-2.5.926-4.68 2.785-6.536 1.856-1.863 4.387-2.797 7.594-2.797 1.703 0 3.258.223 4.656.665 1.406.437 2.38.882 2.918 1.343l1.07.809c.88.824 1.32 1.52 1.32 2.09 0 .558-.343 1.34-1.027 2.336-.964 1.422-1.953 2.129-2.972 2.129-.602 0-1.34-.282-2.215-.852a5.983 5.983 0 0 1-.496-.426 6.217 6.217 0 0 0-.656-.558c-.594-.368-1.356-.551-2.274-.551-.922 0-1.687.219-2.297.664-.61.437-.914 1.047-.914 1.828 0 .777.36 1.406 1.078 1.89.723.485 1.621.817 2.703.989 1.082.164 2.258.426 3.532.777 1.277.356 2.453.79 3.535 1.301 1.078.512 1.98 1.399 2.7 2.66.73 1.262 1.093 2.817 1.093 4.664 0 1.844-.371 3.47-1.113 4.875-.735 1.399-1.696 2.485-2.887 3.25-2.301 1.504-4.758 2.258-7.367 2.258-1.34 0-2.602-.164-3.793-.488-1.192-.328-2.157-.73-2.891-1.219-1.504-.906-2.55-1.785-3.148-2.637Zm43.836-3.782.765-.562c.965-.567 1.645-.852 2.04-.852.878 0 1.831.797 2.855 2.39.625.99.937 1.782.937 2.38 0 .594-.195 1.094-.582 1.496-.382.394-.828.75-1.34 1.059-.507.312-.996.609-1.464.894-.473.285-1.434.656-2.88 1.113-1.44.45-2.835.676-4.187.676-1.343 0-2.707-.18-4.086-.531-1.379-.352-2.797-.95-4.257-1.79a17.657 17.657 0 0 1-3.938-3.062c-1.164-1.207-2.125-2.75-2.879-4.636-.75-1.891-1.121-3.942-1.121-6.149 0-2.219.367-4.226 1.098-6.027.742-1.801 1.687-3.293 2.84-4.469a16.273 16.273 0 0 1 3.937-2.96c2.785-1.532 5.578-2.298 8.383-2.298 1.34 0 2.691.207 4.066.625 1.375.406 2.418.824 3.125 1.246l1.031.602c.504.312.899.566 1.184.758.742.597 1.11 1.273 1.11 2.027 0 .75-.297 1.535-.891 2.36-1.11 1.53-2.106 2.296-2.985 2.296-.511 0-1.234-.312-2.171-.937-1.192-.961-2.782-1.442-4.77-1.442-1.84 0-3.656.637-5.445 1.91-.852.626-1.559 1.504-2.13 2.641-.566 1.133-.85 2.418-.85 3.852 0 1.437.284 2.722.85 3.855.571 1.13 1.294 2.024 2.173 2.684 1.73 1.246 3.535 1.867 5.402 1.867.883 0 1.711-.113 2.496-.34.781-.23 1.344-.453 1.684-.676Zm24.043-23.41c4.195 0 7.84 1.516 10.93 4.551 3.097 3.035 4.644 6.8 4.644 11.305 0 4.496-1.477 8.324-4.426 11.492-2.953 3.16-6.586 4.738-10.898 4.738-4.309 0-7.977-1.558-11.004-4.676-3.024-3.125-4.531-6.843-4.531-11.16 0-2.355.425-4.558 1.277-6.61.851-2.054 1.988-3.78 3.406-5.171a15.848 15.848 0 0 1 4.895-3.273 14.246 14.246 0 0 1 5.707-1.196ZM180.3 67.285c0 2.528.816 4.578 2.441 6.153 1.637 1.57 3.461 2.355 5.477 2.355 2.015 0 3.832-.766 5.445-2.293 1.621-1.531 2.434-3.59 2.434-6.176 0-2.582-.82-4.652-2.453-6.21-1.63-1.56-3.45-2.34-5.465-2.34-2.016 0-3.836.789-5.457 2.359-1.614 1.574-2.422 3.625-2.422 6.152Zm49.972 10.254c.422 1.027.633 1.766.633 2.215 0 1.078-.879 1.988-2.64 2.723-.907.402-1.637.601-2.192.601-.554 0-1.008-.137-1.363-.406-.352-.27-.613-.547-.79-.828-.28-.543-1.386-3.114-3.312-7.711l-1.32.094h-5.363v4.8c0 .657-.02 1.149-.063 1.473-.039.328-.175.7-.402 1.125-.402.766-1.512 1.152-3.328 1.152-1.98 0-3.145-.527-3.488-1.578-.168-.48-.25-1.219-.25-2.215V55.367c0-.652.02-1.14.062-1.465.04-.328.176-.703.406-1.132.395-.762 1.496-1.145 3.313-1.145h9.195c2.5 0 4.93.906 7.285 2.723 1.13.879 2.059 2.07 2.793 3.574.742 1.504 1.114 3.176 1.114 5.02 0 3.206-1.063 5.847-3.192 7.917a315.17 315.17 0 0 0 2.902 6.68Zm-16.347-10.848h5.445c.824 0 1.645-.312 2.465-.933.824-.633 1.234-1.57 1.234-2.817 0-1.246-.41-2.187-1.234-2.828-.82-.636-1.668-.953-2.547-.953h-5.363Zm26.855 8.594h13.102c.656 0 1.148.02 1.476.063.325.043.7.175 1.122.406.77.394 1.152 1.504 1.152 3.324 0 1.98-.527 3.14-1.578 3.48-.477.172-1.215.262-2.215.262h-16.852c-1.98 0-3.144-.543-3.492-1.62-.168-.454-.25-1.177-.25-2.173v-23.66c0-1.449.266-2.433.8-2.953.54-.523 1.567-.789 3.075-.789h16.762c.656 0 1.148.02 1.476.063.325.042.7.175 1.122.406.77.394 1.152 1.5 1.152 3.312 0 1.989-.527 3.153-1.578 3.492-.477.176-1.215.262-2.215.262H240.78v4.29h8.426c.652 0 1.14.023 1.465.073.324.043.703.172 1.133.395.761.402 1.144 1.512 1.144 3.324 0 1.988-.539 3.153-1.613 3.492-.484.168-1.223.25-2.21.25h-8.345Zm0 0" stroke="#000" stroke-width="3.192588"/><path d="M120.175 78.428c-.742-.906-1.11-1.719-1.11-2.438 0-.726.61-1.687 1.829-2.875.707-.675 1.457-1.015 2.25-1.015.8 0 1.91.71 3.328 2.125.394.48.96.945 1.703 1.39.738.438 1.422.657 2.047.657 2.633 0 3.953-1.082 3.953-3.25 0-.645-.367-1.188-1.094-1.625-.719-.446-1.62-.77-2.703-.97-1.074-.194-2.234-.515-3.484-.952a23.185 23.185 0 0 1-3.5-1.547c-1.075-.602-1.969-1.547-2.688-2.828-.719-1.29-1.078-2.848-1.078-4.672 0-2.5.926-4.676 2.781-6.531 1.852-1.852 4.383-2.782 7.594-2.782 1.707 0 3.258.22 4.656.657 1.407.437 2.38.886 2.922 1.343l1.063.797c.883.825 1.328 1.524 1.328 2.094 0 .563-.344 1.344-1.031 2.344-.961 1.418-1.95 2.125-2.97 2.125-.605 0-1.343-.285-2.218-.86-.086-.05-.25-.191-.5-.421a6.2 6.2 0 0 0-.656-.547c-.594-.375-1.356-.563-2.281-.563-.918 0-1.684.227-2.297.672-.606.438-.907 1.047-.907 1.828 0 .781.36 1.414 1.079 1.89.726.481 1.628.81 2.703.985a31.57 31.57 0 0 1 3.531.781c1.281.356 2.457.79 3.531 1.297 1.082.512 1.985 1.403 2.703 2.672.727 1.262 1.094 2.813 1.094 4.656 0 1.844-.371 3.47-1.11 4.875-.741 1.399-1.702 2.48-2.89 3.25-2.305 1.5-4.758 2.25-7.36 2.25-1.335 0-2.6-.164-3.796-.484-1.188-.32-2.153-.726-2.89-1.219-1.5-.906-2.555-1.785-3.157-2.64ZM164.016 74.647l.766-.547c.957-.57 1.633-.86 2.031-.86.883 0 1.836.797 2.86 2.391.625.992.937 1.781.937 2.375 0 .594-.195 1.094-.578 1.5-.387.399-.836.75-1.344 1.063-.511.312-1 .609-1.468.89-.47.281-1.43.653-2.875 1.11-1.45.445-2.844.671-4.188.671-1.344 0-2.71-.18-4.094-.53-1.375-.352-2.793-.946-4.25-1.782a18.007 18.007 0 0 1-3.937-3.063c-1.168-1.207-2.125-2.753-2.875-4.64-.75-1.883-1.125-3.93-1.125-6.14 0-2.22.367-4.227 1.11-6.032.737-1.8 1.679-3.29 2.827-4.469a16.351 16.351 0 0 1 3.938-2.969c2.781-1.53 5.578-2.296 8.39-2.296 1.332 0 2.688.21 4.063.625 1.375.406 2.414.824 3.125 1.25l1.016.593c.507.313.91.57 1.203.766.726.594 1.093 1.273 1.093 2.031 0 .75-.296 1.54-.89 2.36-1.106 1.53-2.094 2.296-2.969 2.296-.512 0-1.234-.312-2.172-.937-1.2-.969-2.789-1.453-4.765-1.453-1.844 0-3.665.64-5.454 1.922-.855.625-1.57 1.508-2.14 2.64-.563 1.137-.844 2.422-.844 3.86 0 1.43.281 2.71.844 3.843.57 1.137 1.3 2.032 2.187 2.688 1.727 1.242 3.532 1.86 5.407 1.86.875 0 1.703-.11 2.484-.329.781-.226 1.344-.457 1.687-.687ZM188.053 51.24c4.195 0 7.843 1.524 10.937 4.563 3.094 3.031 4.64 6.797 4.64 11.297 0 4.492-1.48 8.32-4.437 11.484-2.949 3.168-6.578 4.75-10.89 4.75-4.313 0-7.98-1.562-11-4.687-3.024-3.125-4.532-6.844-4.532-11.157 0-2.351.426-4.554 1.282-6.609.851-2.062 1.988-3.785 3.406-5.172a15.785 15.785 0 0 1 4.89-3.281 14.353 14.353 0 0 1 5.704-1.188Zm-7.75 16.047c0 2.524.816 4.575 2.453 6.157 1.633 1.574 3.457 2.359 5.468 2.359 2.008 0 3.82-.766 5.438-2.297 1.625-1.539 2.437-3.598 2.437-6.172 0-2.582-.82-4.656-2.453-6.219-1.625-1.562-3.449-2.343-5.468-2.343-2.012 0-3.829.789-5.454 2.36-1.617 1.573-2.421 3.624-2.421 6.155ZM230.268 77.537c.426 1.024.64 1.762.64 2.22 0 1.073-.882 1.98-2.64 2.718-.906.394-1.637.594-2.188.594-.554 0-1.007-.133-1.359-.391-.355-.27-.621-.55-.797-.844-.281-.531-1.387-3.097-3.312-7.703l-1.328.094h-5.36v4.812c0 .649-.023 1.137-.062 1.47-.043.323-.18.698-.407 1.124-.398.762-1.5 1.14-3.312 1.14-1.992 0-3.156-.523-3.5-1.577-.168-.477-.25-1.211-.25-2.204V55.365c0-.656.02-1.144.062-1.468.04-.32.176-.696.407-1.125.394-.77 1.5-1.157 3.312-1.157h9.203c2.489 0 4.914.915 7.282 2.735 1.132.875 2.066 2.07 2.796 3.578.739 1.5 1.11 3.172 1.11 5.016 0 3.21-1.063 5.851-3.188 7.921.625 1.5 1.586 3.727 2.89 6.672Zm-16.344-10.843h5.453c.82 0 1.645-.313 2.47-.938.82-.625 1.233-1.562 1.233-2.812 0-1.25-.414-2.192-1.234-2.829-.824-.644-1.68-.968-2.562-.968h-5.36ZM240.777 75.287h13.11c.656 0 1.144.024 1.468.063.32.043.696.18 1.125.406.77.399 1.156 1.5 1.156 3.313 0 1.992-.527 3.156-1.578 3.5-.48.168-1.218.25-2.218.25h-16.844c-1.992 0-3.156-.54-3.5-1.625-.168-.446-.25-1.164-.25-2.157V55.365c0-1.445.265-2.43.797-2.953.539-.53 1.566-.797 3.078-.797h16.765c.657 0 1.145.024 1.47.063.32.043.695.18 1.124.406.77.399 1.156 1.508 1.156 3.328 0 1.98-.527 3.14-1.578 3.485-.48.168-1.218.25-2.218.25h-13.063v4.312h8.422c.656 0 1.144.024 1.469.063.332.043.71.18 1.14.406.758.398 1.14 1.5 1.14 3.312 0 1.993-.538 3.153-1.608 3.485-.493.18-1.23.265-2.22.265h-8.343Zm0 0" fill="#fff"/></svg>