<svg xmlns="http://www.w3.org/2000/svg" width="600" viewBox="0 0 450 450" height="600" version="1.0"><path fill="none" d="m52.867 183.36-20.945 5.93.226-24.028 42.047-11.903.055-3.945 20.172-5.71-.473 28.03-19.05 5.391 23.66 83.594-22.032 6.234ZM119.914 194.285l-8.46 1.387 2.605-21.633 22.953-3.77 1.414 8.618c1.937-3.77 4.191-6.586 6.765-8.45 2.606-1.87 6.13-3.167 10.575-3.898a27.483 27.483 0 0 1 2.277-.293c.672-.055 1.566-.066 2.687-.035l-2.984 22.555c-.789-.008-1.371.02-1.742.082-.371.058-.832.136-1.387.226-4.66.766-7.965 2.653-9.918 5.664-.644.868-1.137 1.696-1.469 2.485-.304.785-.511 1.687-.613 2.71-.11.997-.11 2.165.004 3.508.106 1.313.309 2.883.61 4.711l6.867 41.813-20.489 3.363ZM172.773 186.719l-8.543.676 4.723-21.364 23.024-1.828 4.734 59.649 8.383-.664-4.281 21.328-23.31 1.851Zm-1.675-50.125 20.699-1.64-4.254 21.163-20.898 1.66ZM202.516 162.45l23.53.546 13.974 51.766 17.046-51.043 23.532.547-29.715 80.09-23.25-.54ZM293.09 160.574l-11.254-1.469 9.848-21.968 27.293 3.562-14.227 109.008-22.902-2.988ZM356.844 170.902l-9.89-2.586 12.374-20.597 38.27 10.011 5.191 114.989-24.41-6.383-.582-21.781-33.793-8.84-11.524 18.613-24.097-6.305Zm20.476 52.73-1.082-41.5-21.574 35.575Zm0 0" stroke="#ffc400" stroke-width="12.3615"/><path d="m52.868 183.373-20.922 5.922.203-24.032 42.031-11.906.078-3.953 20.14-5.703-.452 28.047-19.031 5.39 23.656 83.578-22.047 6.235ZM119.906 194.298l-8.453 1.39 2.61-21.656 22.921-3.766 1.422 8.64c1.946-3.78 4.211-6.6 6.797-8.468 2.594-1.875 6.113-3.18 10.563-3.922a33.577 33.577 0 0 1 2.281-.281c.656-.05 1.547-.055 2.672-.016l-3 22.532c-.762.023-1.336.062-1.719.125-.375.054-.836.125-1.375.218-4.668.774-7.98 2.653-9.937 5.641-.625.887-1.102 1.719-1.422 2.5-.325.773-.543 1.668-.657 2.688-.105 1.023-.105 2.195 0 3.515.102 1.313.305 2.89.61 4.735l6.86 41.796-20.485 3.36ZM172.751 186.73l-8.53.671 4.734-21.375 23.015-1.828 4.735 59.64 8.375-.671-4.266 21.344-23.328 1.86Zm-1.64-50.141 20.687-1.64-4.265 21.187-20.86 1.656ZM202.506 162.44l23.562.548 13.969 51.765 17-51.047 23.578.547-29.734 80.11-23.22-.547Zm0 0" fill="#571844"/><path d="m293.101 160.589-11.28-1.469 9.859-21.984 27.296 3.562-14.234 109.016-22.875-3ZM356.84 170.914l-9.874-2.578 12.39-20.625 38.25 10.016 5.188 115-24.39-6.39-.626-21.798-33.797-8.843-11.5 18.625-24.093-6.297Zm20.454 52.735-1.063-41.516-21.578 35.594Zm0 0" fill="#ffc301"/><path fill="none" d="M112.531 272.984H90.06v37.461h7.484v-14.988h7.504v7.504h7.484v-14.988H97.543v-7.48h14.988Zm7.48 7.508h-7.48v7.48h7.48Zm0 22.469h-7.48v7.484h7.48Zm29.966-22.469h-22.47v7.48h14.99v7.485h-14.99v14.988h7.481v-7.484h7.508v7.484h7.48Zm14.972 0h-7.484v22.469h7.484Zm22.469 0h-7.48v22.469h7.48Zm-7.48 22.469h-14.989v7.484h7.504v7.48h7.485Zm-7.485 14.965h-14.988v7.508h14.988Zm29.942-44.942h-7.48v37.461h7.48v-22.472h7.507v-7.48h-7.507Zm29.976 0h-7.504v7.508h-7.484v7.48h7.484v22.473h7.504Zm-14.988 14.989h-7.48v7.484h7.48Zm29.95-7.48h-7.481v22.468h7.48Zm22.472 0h-7.485v14.964h-7.484v7.504h7.484v7.484h7.485Zm-14.969 22.468h-7.504v7.484h7.504Zm29.945-22.469h-7.484v29.953h7.484v-14.988h7.504v-7.484h-7.504Zm14.989 0h-7.485v7.48h7.485Zm7.48 7.48h-7.48v22.473h7.48Zm37.45-22.468h-7.485v14.988h-14.988v7.48h14.988v7.485h-7.48v7.504h7.48v7.484h7.484Zm-22.473 22.469h-7.48v14.988h7.48Zm7.507 14.988h-7.507v7.484h7.507Zm44.93-22.469h-14.988v7.48h14.988Zm-14.988 7.48h-7.484v14.989h7.484Zm22.473 0h-7.485v14.989h7.485Zm-7.485 14.989h-14.988v7.484h14.988Zm0 0" stroke="#ffcd6d" stroke-width="6.74118936"/><path d="M112.528 272.995H90.059v37.449h7.488v-14.98h7.492v7.492h7.489v-14.98h-14.98v-7.493h14.98Zm7.492 7.488h-7.492v7.492h7.492Zm0 22.473h-7.492v7.488h7.492ZM149.975 280.483h-22.468v7.492h14.98v7.489h-14.98v14.98h7.488v-7.488h7.492v7.488h7.488ZM164.953 280.483h-7.488v22.473h7.488Zm22.473 0h-7.492v22.473h7.492Zm-7.492 22.473h-14.98v7.488h7.491v7.488h7.489Zm-7.489 14.976h-14.98v7.492h14.98ZM202.401 272.995h-7.488v37.449h7.488v-22.469h7.492v-7.492h-7.492Zm29.96 0h-7.487v7.488h-7.493v7.492h7.493v22.469h7.488Zm-14.98 14.98h-7.488v7.489h7.488ZM247.338 280.483h-7.488v22.473h7.488Zm22.473 0h-7.492v14.98h-7.488v7.493h7.488v7.488h7.492Zm-14.98 22.473h-7.493v7.488h7.493ZM284.786 280.483h-7.488v29.961h7.488v-14.98h7.492v-7.489h-7.492Zm14.98 0h-7.488v7.492h7.489Zm7.493 7.492h-7.492v22.469h7.492ZM344.707 265.503h-7.493v14.98h-14.98v7.492h14.98v7.489h-7.488v7.492h7.488v7.488h7.493Zm-22.473 22.472h-7.488v14.98h7.488Zm7.492 14.98h-7.492v7.489h7.492ZM374.662 280.483h-14.98v7.492h14.98Zm-14.98 7.492h-7.489v14.98h7.489Zm22.472 0h-7.492v14.98h7.492Zm-7.492 14.98h-14.98v7.489h14.98Zm0 0" fill="#c7003a"/><path fill="none" d="m281.98 162.496-11.292-1.422 9.777-22.078 27.394 3.453-13.789 109.403-22.984-2.899ZM345.938 172.57l-9.93-2.55 12.32-20.715 38.43 9.87 5.715 115.317-24.512-6.293-.684-21.847-33.93-8.715-11.476 18.722-24.2-6.218Zm20.773 52.801-1.27-41.625-21.484 35.781Zm0 0" stroke="#571844" stroke-width="12.399000000000001"/><path d="m281.987 162.525-11.313-1.437 9.782-22.11 27.39 3.453-13.781 109.422-22.969-2.89ZM345.93 172.573l-9.922-2.546 12.328-20.735 38.438 9.875 5.703 115.328-24.5-6.297-.703-21.859-33.953-8.719-11.453 18.735-24.188-6.203Zm20.766 52.797-1.266-41.64-21.469 35.797Zm0 0" fill="#ffc301"/></svg>