<svg xmlns="http://www.w3.org/2000/svg" xmlns:xlink="http://www.w3.org/1999/xlink" width="600" zoomAndPan="magnify" viewBox="0 0 450 449.999984" height="600" preserveAspectRatio="xMidYMid meet" version="1.0"><defs><g/><clipPath id="2d608224d6"><path d="M 124.050781 267 L 325.800781 267 L 325.800781 393 L 124.050781 393 Z M 124.050781 267 " clip-rule="nonzero"/></clipPath></defs><path stroke-linecap="butt" transform="matrix(0.792575, -0.224337, 0.224337, 0.792575, -0.882686, 49.592595)" fill="none" stroke-linejoin="miter" d="M 29.669125 85.166415 L 0.644696 85.167011 L 9.657834 54.420844 L 67.922963 54.421724 L 69.425022 49.376182 L 97.379207 49.378226 L 86.594964 85.162782 L 60.19763 85.16276 L 60.200021 200.999266 L 29.666954 201.00163 Z M 29.669125 85.166415 " stroke="#ffc400" stroke-width="16.482225" stroke-opacity="1" stroke-miterlimit="4"/><path stroke-linecap="butt" transform="matrix(0.812824, -0.13349, 0.13349, 0.812824, 88.636751, 25.63667)" fill="none" stroke-linejoin="miter" d="M 12.982843 121.219378 L 1.55512 121.216856 L 9.659404 93.319089 L 40.666573 93.317271 L 40.666905 104.961723 C 44.031902 100.420233 47.607415 97.201264 51.398125 95.305585 C 55.227039 93.411375 60.145765 92.460263 66.152765 92.461608 C 67.334678 92.463482 68.352944 92.49615 69.210704 92.569739 C 70.107437 92.640117 71.284313 92.818978 72.751458 93.103179 L 63.952093 122.13149 C 62.914768 121.951518 62.145851 121.863685 61.646112 121.863311 C 61.146372 121.862938 60.52189 121.8613 59.767217 121.86231 C 53.471758 121.86165 48.716359 123.632538 45.496339 127.174207 C 44.461819 128.176917 43.636973 129.161199 43.02725 130.123141 C 42.454964 131.091231 41.993024 132.236034 41.635982 133.56146 C 41.275729 134.847914 41.028332 136.383578 40.883665 138.171597 C 40.739698 139.926091 40.667514 142.033584 40.670255 144.504203 L 40.667039 201.000385 L 12.985738 201.000551 Z M 12.982843 121.219378 " stroke="#ffc400" stroke-width="16.482225" stroke-opacity="1" stroke-miterlimit="4"/><path stroke-linecap="butt" transform="matrix(0.821132, -0.0651442, 0.0651442, 0.821132, 154.870309, 15.431725)" fill="none" stroke-linejoin="miter" d="M 12.985467 121.217102 L 1.553902 121.218799 L 10.084784 93.319395 L 40.882716 93.317561 L 40.884985 173.099898 L 52.09759 173.099858 L 44.156655 200.998494 L 12.983008 200.999064 Z M 16.044011 54.421997 L 43.725997 54.420332 L 35.840133 82.104508 L 7.88681 82.108432 Z M 16.044011 54.421997 " stroke="#ffc400" stroke-width="16.482225" stroke-opacity="1" stroke-miterlimit="4"/><path stroke-linecap="butt" transform="matrix(0.82349, 0.0191353, -0.0191353, 0.82349, 210.220612, 10.676518)" fill="none" stroke-linejoin="miter" d="M -2.843004 93.318208 L 28.544955 93.319353 L 48.770829 161.886691 L 69.908571 93.321128 L 101.29642 93.317533 L 64.166435 200.999852 L 33.157973 200.999375 Z M -2.843004 93.318208 " stroke="#ffc400" stroke-width="16.482225" stroke-opacity="1" stroke-miterlimit="4"/><path stroke-linecap="butt" transform="matrix(0.816786, 0.1066, -0.1066, 0.816786, 302.640952, 14.280616)" fill="none" stroke-linejoin="miter" d="M 14.701554 85.165986 L -0.430208 85.165689 L 8.79976 54.419784 L 45.495983 54.422551 L 45.496143 201.000333 L 14.702065 201.00203 Z M 14.701554 85.165986 " stroke="#ffc400" stroke-width="16.482225" stroke-opacity="1" stroke-miterlimit="4"/><path stroke-linecap="butt" transform="matrix(0.796898, 0.20846, -0.20846, 0.796898, 365.507207, 21.604157)" fill="none" stroke-linejoin="miter" d="M 34.926061 85.166547 L 21.298068 85.162954 L 30.315083 54.42268 L 83.053218 54.420692 L 128.553132 200.999088 L 94.912299 201.000389 L 86.810251 173.101063 L 40.238508 173.102691 L 31.654107 200.999485 L -1.55539 201.000696 Z M 79.136272 146.275999 L 63.737164 93.104924 L 47.910879 146.272881 Z M 79.136272 146.275999 " stroke="#ffc400" stroke-width="16.482225" stroke-opacity="1" stroke-miterlimit="4"/><g fill="#571844" fill-opacity="1"><g transform="translate(44.209002, 208.90019)"><g><path d="M -2.46875 -98.4375 L -25.453125 -91.9375 L -25.203125 -118.34375 L 20.953125 -131.40625 L 21.03125 -135.765625 L 43.140625 -142.03125 L 42.625 -111.203125 L 21.734375 -105.28125 L 47.71875 -13.5 L 23.515625 -6.65625 Z M -2.46875 -98.4375 "/></g></g></g><g fill="#571844" fill-opacity="1"><g transform="translate(115.468246, 189.014268)"><g><path d="M -0.09375 -66.5625 L -9.390625 -65.03125 L -6.515625 -88.828125 L 18.671875 -92.953125 L 20.234375 -83.484375 C 22.359375 -87.628906 24.84375 -90.726562 27.6875 -92.78125 C 30.53125 -94.832031 34.394531 -96.257812 39.28125 -97.0625 C 40.238281 -97.21875 41.078125 -97.320312 41.796875 -97.375 C 42.523438 -97.4375 43.5 -97.445312 44.71875 -97.40625 L 41.4375 -72.65625 C 40.582031 -72.644531 39.945312 -72.601562 39.53125 -72.53125 C 39.125 -72.46875 38.617188 -72.390625 38.015625 -72.296875 C 32.898438 -71.453125 29.265625 -69.382812 27.109375 -66.09375 C 26.410156 -65.113281 25.890625 -64.195312 25.546875 -63.34375 C 25.203125 -62.5 24.96875 -61.515625 24.84375 -60.390625 C 24.71875 -59.265625 24.710938 -57.976562 24.828125 -56.53125 C 24.953125 -55.082031 25.179688 -53.347656 25.515625 -51.328125 L 33.046875 -5.421875 L 10.546875 -1.734375 Z M -0.09375 -66.5625 "/></g></g></g><g fill="#571844" fill-opacity="1"><g transform="translate(167.964292, 180.479349)"><g><path d="M 5.46875 -66.34375 L -3.921875 -65.59375 L 1.28125 -89.078125 L 26.546875 -91.078125 L 31.75 -25.5625 L 40.953125 -26.296875 L 36.28125 -2.875 L 10.65625 -0.84375 Z M 3.625 -121.40625 L 26.359375 -123.203125 L 21.65625 -99.9375 L -1.25 -98.125 Z M 3.625 -121.40625 "/></g></g></g><g fill="#571844" fill-opacity="1"><g transform="translate(206.374408, 176.198057)"><g><path d="M -0.296875 -88.734375 L 25.59375 -88.125 L 40.921875 -31.265625 L 59.609375 -87.328125 L 85.5 -86.734375 L 52.84375 1.234375 L 27.328125 0.640625 Z M -0.296875 -88.734375 "/></g></g></g><g fill="#ffc301" fill-opacity="1"><g transform="translate(281.214436, 178.454546)"><g><path d="M 24.359375 -93.03125 L 11.984375 -94.640625 L 22.796875 -118.78125 L 52.78125 -114.875 L 37.15625 4.84375 L 12.015625 1.5625 Z M 24.359375 -93.03125 "/></g></g></g><g fill="#ffc301" fill-opacity="1"><g transform="translate(323.60682, 181.780713)"><g><path d="M 51.984375 -85 L 41.125 -87.84375 L 54.71875 -110.46875 L 96.734375 -99.484375 L 102.4375 26.796875 L 75.65625 19.796875 L 74.984375 -4.140625 L 37.859375 -13.84375 L 25.21875 6.59375 L -1.21875 -0.3125 Z M 74.453125 -27.109375 L 73.28125 -72.703125 L 49.59375 -33.625 Z M 74.453125 -27.109375 "/></g></g></g><path stroke-linecap="butt" transform="matrix(0.801791, 0, 0, 0.801791, 0.00000815, 138.560848)" fill="none" stroke-linejoin="miter" d="M 133.777723 87.691541 L 103.001878 87.691541 L 103.001878 138.997608 L 113.252373 138.997608 L 113.252373 118.472258 L 123.5321 118.472258 L 123.5321 128.751985 L 133.777723 128.751985 L 133.777723 108.221763 L 113.252373 108.221763 L 113.252373 97.971267 L 133.777723 97.971267 Z M 144.028219 97.971267 L 133.777723 97.971267 L 133.777723 108.221763 L 144.028219 108.221763 Z M 144.028219 128.751985 L 133.777723 128.751985 L 133.777723 138.997608 L 144.028219 138.997608 Z M 185.074047 97.971267 L 154.29333 97.971267 L 154.29333 108.221763 L 174.823552 108.221763 L 174.823552 118.472258 L 154.29333 118.472258 L 154.29333 138.997608 L 164.543825 138.997608 L 164.543825 128.751985 L 174.823552 128.751985 L 174.823552 138.997608 L 185.074047 138.997608 Z M 205.57991 97.971267 L 195.334286 97.971267 L 195.334286 128.751985 L 205.57991 128.751985 Z M 236.360627 97.971267 L 226.110132 97.971267 L 226.110132 128.751985 L 236.360627 128.751985 Z M 226.110132 128.751985 L 205.57991 128.751985 L 205.57991 138.997608 L 215.859637 138.997608 L 215.859637 149.248104 L 226.110132 149.248104 Z M 215.859637 149.248104 L 195.334286 149.248104 L 195.334286 159.52783 L 215.859637 159.52783 Z M 256.876234 87.691541 L 246.625738 87.691541 L 246.625738 138.997608 L 256.876234 138.997608 L 256.876234 108.221763 L 267.15596 108.221763 L 267.15596 97.971267 L 256.876234 97.971267 Z M 297.936678 87.691541 L 287.656951 87.691541 L 287.656951 97.971267 L 277.406456 97.971267 L 277.406456 108.221763 L 287.656951 108.221763 L 287.656951 138.997608 L 297.936678 138.997608 Z M 277.406456 108.221763 L 267.15596 108.221763 L 267.15596 118.472258 L 277.406456 118.472258 Z M 318.432797 97.971267 L 308.182301 97.971267 L 308.182301 128.751985 L 318.432797 128.751985 Z M 349.213514 97.971267 L 338.963019 97.971267 L 338.963019 118.472258 L 328.712523 118.472258 L 328.712523 128.751985 L 338.963019 128.751985 L 338.963019 138.997608 L 349.213514 138.997608 Z M 328.712523 128.751985 L 318.432797 128.751985 L 318.432797 138.997608 L 328.712523 138.997608 Z M 369.72912 97.971267 L 359.478625 97.971267 L 359.478625 138.997608 L 369.72912 138.997608 L 369.72912 118.472258 L 380.008847 118.472258 L 380.008847 108.221763 L 369.72912 108.221763 Z M 390.259343 97.971267 L 380.008847 97.971267 L 380.008847 108.221763 L 390.259343 108.221763 Z M 400.509838 108.221763 L 390.259343 108.221763 L 390.259343 138.997608 L 400.509838 138.997608 Z M 451.80129 77.441045 L 441.550795 77.441045 L 441.550795 97.971267 L 421.025444 97.971267 L 421.025444 108.221763 L 441.550795 108.221763 L 441.550795 118.472258 L 431.305171 118.472258 L 431.305171 128.751985 L 441.550795 128.751985 L 441.550795 138.997608 L 451.80129 138.997608 Z M 421.025444 108.221763 L 410.774949 108.221763 L 410.774949 128.751985 L 421.025444 128.751985 Z M 431.305171 128.751985 L 421.025444 128.751985 L 421.025444 138.997608 L 431.305171 138.997608 Z M 492.847118 97.971267 L 472.316896 97.971267 L 472.316896 108.221763 L 492.847118 108.221763 Z M 472.316896 108.221763 L 462.066401 108.221763 L 462.066401 128.751985 L 472.316896 128.751985 Z M 503.097614 108.221763 L 492.847118 108.221763 L 492.847118 128.751985 L 503.097614 128.751985 Z M 492.847118 128.751985 L 472.316896 128.751985 L 472.316896 138.997608 L 492.847118 138.997608 Z M 492.847118 128.751985 " stroke="#ffcd6d" stroke-width="9.234" stroke-opacity="1" stroke-miterlimit="4"/><g fill="#c7003a" fill-opacity="1"><g transform="translate(82.584432, 250.00973)"><g><path d="M 24.679688 -41.132812 L 0 -41.132812 L 0 0 L 8.226562 0 L 8.226562 -16.453125 L 16.453125 -16.453125 L 16.453125 -8.226562 L 24.679688 -8.226562 L 24.679688 -24.679688 L 8.226562 -24.679688 L 8.226562 -32.90625 L 24.679688 -32.90625 Z M 32.90625 -32.90625 L 24.679688 -32.90625 L 24.679688 -24.679688 L 32.90625 -24.679688 Z M 32.90625 -8.226562 L 24.679688 -8.226562 L 24.679688 0 L 32.90625 0 Z M 32.90625 -8.226562 "/></g></g></g><g fill="#c7003a" fill-opacity="1"><g transform="translate(123.712691, 250.00973)"><g><path d="M 24.679688 -32.90625 L 0 -32.90625 L 0 -24.679688 L 16.453125 -24.679688 L 16.453125 -16.453125 L 0 -16.453125 L 0 0 L 8.226562 0 L 8.226562 -8.226562 L 16.453125 -8.226562 L 16.453125 0 L 24.679688 0 Z M 24.679688 -32.90625 "/></g></g></g><g fill="#c7003a" fill-opacity="1"><g transform="translate(156.615306, 250.00973)"><g><path d="M 8.226562 -32.90625 L 0 -32.90625 L 0 -8.226562 L 8.226562 -8.226562 Z M 32.90625 -32.90625 L 24.679688 -32.90625 L 24.679688 -8.226562 L 32.90625 -8.226562 Z M 24.679688 -8.226562 L 8.226562 -8.226562 L 8.226562 0 L 16.453125 0 L 16.453125 8.226562 L 24.679688 8.226562 Z M 16.453125 8.226562 L 0 8.226562 L 0 16.453125 L 16.453125 16.453125 Z M 16.453125 8.226562 "/></g></g></g><g fill="#c7003a" fill-opacity="1"><g transform="translate(197.743566, 250.00973)"><g><path d="M 8.226562 -41.132812 L 0 -41.132812 L 0 0 L 8.226562 0 L 8.226562 -24.679688 L 16.453125 -24.679688 L 16.453125 -32.90625 L 8.226562 -32.90625 Z M 41.132812 -41.132812 L 32.90625 -41.132812 L 32.90625 -32.90625 L 24.679688 -32.90625 L 24.679688 -24.679688 L 32.90625 -24.679688 L 32.90625 0 L 41.132812 0 Z M 24.679688 -24.679688 L 16.453125 -24.679688 L 16.453125 -16.453125 L 24.679688 -16.453125 Z M 24.679688 -24.679688 "/></g></g></g><g fill="#c7003a" fill-opacity="1"><g transform="translate(247.097481, 250.00973)"><g><path d="M 8.226562 -32.90625 L 0 -32.90625 L 0 -8.226562 L 8.226562 -8.226562 Z M 32.90625 -32.90625 L 24.679688 -32.90625 L 24.679688 -16.453125 L 16.453125 -16.453125 L 16.453125 -8.226562 L 24.679688 -8.226562 L 24.679688 0 L 32.90625 0 Z M 16.453125 -8.226562 L 8.226562 -8.226562 L 8.226562 0 L 16.453125 0 Z M 16.453125 -8.226562 "/></g></g></g><g fill="#c7003a" fill-opacity="1"><g transform="translate(288.225741, 250.00973)"><g><path d="M 8.226562 -32.90625 L 0 -32.90625 L 0 0 L 8.226562 0 L 8.226562 -16.453125 L 16.453125 -16.453125 L 16.453125 -24.679688 L 8.226562 -24.679688 Z M 24.679688 -32.90625 L 16.453125 -32.90625 L 16.453125 -24.679688 L 24.679688 -24.679688 Z M 32.90625 -24.679688 L 24.679688 -24.679688 L 24.679688 0 L 32.90625 0 Z M 32.90625 -24.679688 "/></g></g></g><g fill="#c7003a" fill-opacity="1"><g transform="translate(329.354012, 250.00973)"><g><path d="M 32.90625 -49.359375 L 24.679688 -49.359375 L 24.679688 -32.90625 L 8.226562 -32.90625 L 8.226562 -24.679688 L 24.679688 -24.679688 L 24.679688 -16.453125 L 16.453125 -16.453125 L 16.453125 -8.226562 L 24.679688 -8.226562 L 24.679688 0 L 32.90625 0 Z M 8.226562 -24.679688 L 0 -24.679688 L 0 -8.226562 L 8.226562 -8.226562 Z M 16.453125 -8.226562 L 8.226562 -8.226562 L 8.226562 0 L 16.453125 0 Z M 16.453125 -8.226562 "/></g></g></g><g fill="#c7003a" fill-opacity="1"><g transform="translate(370.482283, 250.00973)"><g><path d="M 24.679688 -32.90625 L 8.226562 -32.90625 L 8.226562 -24.679688 L 24.679688 -24.679688 Z M 8.226562 -24.679688 L 0 -24.679688 L 0 -8.226562 L 8.226562 -8.226562 Z M 32.90625 -24.679688 L 24.679688 -24.679688 L 24.679688 -8.226562 L 32.90625 -8.226562 Z M 24.679688 -8.226562 L 8.226562 -8.226562 L 8.226562 0 L 24.679688 0 Z M 24.679688 -8.226562 "/></g></g></g><path stroke-linecap="butt" transform="matrix(0.817248, 0.102993, -0.102993, 0.817248, 290.155298, 15.874423)" fill="none" stroke-linejoin="miter" d="M 14.744653 85.812873 L -0.431009 85.813475 L 8.826803 54.974015 L 45.636021 54.976298 L 45.63844 202.001405 L 14.746554 201.999036 Z M 14.744653 85.812873 " stroke="#571844" stroke-width="16.532326" stroke-opacity="1" stroke-miterlimit="4"/><path stroke-linecap="butt" transform="matrix(0.79781, 0.204942, -0.204942, 0.79781, 353.245233, 22.942756)" fill="none" stroke-linejoin="miter" d="M 35.033454 85.8092 L 21.363471 85.810168 L 30.408182 54.976097 L 83.30649 54.974545 L 128.943046 202.001379 L 95.19765 201.998719 L 87.07469 174.017694 L 40.364375 174.016044 L 31.753273 202.001745 L -1.560792 202.000897 Z M 79.37847 147.107035 L 63.930533 93.774906 L 48.057695 147.108252 Z M 79.37847 147.107035 " stroke="#571844" stroke-width="16.532326" stroke-opacity="1" stroke-miterlimit="4"/><g fill="#ffc301" fill-opacity="1"><g transform="translate(219.756679, 179.047311)"><g/></g></g><g fill="#ffc301" fill-opacity="1"><g transform="translate(269.35065, 180.958554)"><g><path d="M 24.046875 -93.421875 L 11.609375 -94.984375 L 22.34375 -119.25 L 52.4375 -115.453125 L 37.296875 4.703125 L 12.078125 1.515625 Z M 24.046875 -93.421875 "/></g></g></g><g fill="#ffc301" fill-opacity="1"><g transform="translate(311.846962, 184.100406)"><g><path d="M 51.78125 -85.484375 L 40.875 -88.296875 L 54.40625 -111.0625 L 96.609375 -100.21875 L 102.875 26.421875 L 75.96875 19.515625 L 75.203125 -4.5 L 37.921875 -14.078125 L 25.3125 6.5 L -1.21875 -0.3125 Z M 74.5625 -27.53125 L 73.1875 -73.265625 L 49.578125 -33.953125 Z M 74.5625 -27.53125 "/></g></g></g><g clip-path="url(#2d608224d6)"><path fill="#571844" d="M 166.195312 380.800781 C 166.679688 380.792969 167.21875 380.726562 167.234375 380.480469 C 167.269531 379.773438 166.324219 380.53125 166.21875 380.742188 C 166.210938 380.761719 166.203125 380.78125 166.195312 380.800781 Z M 158.914062 373.40625 C 159.597656 373.859375 160.742188 374.296875 161.277344 373.484375 C 161.691406 372.851562 160.921875 372.132812 160.3125 372.164062 C 159.640625 372.199219 159.128906 372.808594 158.914062 373.40625 Z M 175.320312 390.941406 C 172.957031 391.925781 170.097656 390.761719 168.1875 389.308594 C 166.136719 387.75 164.617188 385.523438 164.027344 383.007812 C 163.976562 382.785156 163.933594 382.558594 163.902344 382.328125 C 162.847656 382.023438 161.839844 381.53125 161.003906 380.972656 C 159.125 379.722656 157.695312 377.757812 157.214844 375.542969 C 157.074219 374.910156 157.0625 374.214844 157.179688 373.554688 C 157.011719 373.402344 156.859375 373.253906 156.714844 373.109375 C 154.71875 371.089844 152.984375 368.613281 152.082031 365.90625 C 151.867188 365.261719 152.742188 364.921875 153.046875 365.511719 C 154.050781 367.425781 155.089844 369.261719 156.464844 370.933594 C 156.832031 371.382812 157.210938 371.828125 157.613281 372.253906 C 158.097656 371.324219 158.925781 370.625 160.117188 370.523438 C 162.09375 370.351562 163.746094 372.699219 162.371094 374.34375 C 161.339844 375.578125 159.984375 375.371094 158.777344 374.710938 C 158.878906 375.832031 159.472656 376.964844 160.117188 377.804688 C 160.960938 378.910156 162.109375 379.785156 163.402344 380.296875 C 163.59375 380.375 163.789062 380.441406 163.988281 380.5 C 164.074219 380.160156 164.210938 379.832031 164.402344 379.523438 C 164.992188 378.574219 166.089844 377.890625 167.238281 378.0625 C 169.726562 378.4375 169.90625 381.738281 167.519531 382.445312 C 167.101562 382.570312 166.671875 382.632812 166.230469 382.648438 C 166.238281 382.671875 166.242188 382.695312 166.25 382.714844 C 166.621094 384.050781 167.347656 385.269531 168.285156 386.28125 C 170.238281 388.390625 172.777344 388.964844 175.332031 389.976562 C 175.757812 390.144531 175.722656 390.773438 175.320312 390.941406 Z M 246.140625 385.742188 C 246.132812 384.84375 244.855469 384.140625 244.640625 385.3125 C 244.515625 386 244.996094 386.535156 245.585938 386.925781 C 245.925781 386.601562 246.144531 386.210938 246.140625 385.742188 Z M 257.347656 384.40625 C 256.855469 385.515625 256.304688 386.453125 255.308594 387.191406 C 254.367188 387.890625 253.308594 388.398438 252.179688 388.726562 C 250.246094 389.289062 248.046875 389.238281 246.175781 388.425781 C 246.089844 388.492188 246.003906 388.558594 245.917969 388.621094 C 241.894531 391.445312 236.046875 390.5 232.488281 387.328125 C 232.34375 387.429688 232.199219 387.53125 232.058594 387.625 C 229.167969 389.53125 225.398438 390.042969 222.136719 388.828125 C 219.335938 387.785156 216.269531 385.316406 215.894531 382.183594 C 215.796875 381.355469 216.886719 380.683594 217.46875 381.4375 C 218.550781 382.851562 219.484375 384.382812 220.949219 385.441406 C 222.425781 386.507812 224.152344 387.082031 225.976562 387.085938 C 227.695312 387.089844 229.480469 386.5625 230.910156 385.574219 C 230.363281 384.804688 229.945312 383.914062 230.0625 382.992188 C 230.238281 381.65625 231.566406 380.855469 232.839844 381.25 C 234.105469 381.644531 234.898438 382.855469 234.726562 384.171875 C 234.652344 384.753906 234.421875 385.277344 234.101562 385.746094 C 236.195312 387.644531 239.148438 388.570312 241.957031 388.277344 C 242.625 388.207031 243.753906 387.984375 244.675781 387.535156 C 243.914062 386.90625 243.371094 386.03125 243.527344 384.996094 C 243.683594 383.976562 244.589844 383.160156 245.648438 383.339844 C 246.6875 383.519531 247.503906 384.539062 247.621094 385.554688 C 247.710938 386.3125 247.429688 387.015625 246.980469 387.609375 C 250.59375 388.914062 254.902344 387.3125 257.238281 384.351562 C 257.277344 384.300781 257.378906 384.339844 257.347656 384.40625 Z M 253.347656 374.382812 C 252.847656 373.882812 252.773438 375.09375 252.859375 375.3125 C 252.867188 375.332031 252.878906 375.347656 252.886719 375.367188 C 253.207031 375 253.519531 374.558594 253.347656 374.382812 Z M 244.164062 374.105469 C 243.972656 373.378906 242.921875 373.46875 242.539062 373.9375 C 242.113281 374.460938 242.21875 375.25 242.523438 375.8125 C 243.316406 375.605469 244.40625 375.050781 244.164062 374.105469 Z M 260.535156 379.597656 C 258.003906 380.074219 255.332031 379.707031 253.074219 378.457031 C 252.871094 378.347656 252.675781 378.226562 252.484375 378.09375 C 251.550781 378.671875 250.507812 379.089844 249.535156 379.332031 C 247.347656 379.890625 244.929688 379.628906 242.964844 378.503906 C 242.402344 378.179688 241.878906 377.722656 241.46875 377.195312 C 241.242188 377.214844 241.027344 377.230469 240.824219 377.242188 C 237.988281 377.367188 234.988281 376.996094 232.375 375.847656 C 231.75 375.574219 232.085938 374.699219 232.730469 374.867188 C 234.820312 375.402344 236.882812 375.867188 239.042969 375.96875 C 239.621094 375.996094 240.207031 376.015625 240.792969 376 C 240.425781 375.015625 240.464844 373.9375 241.1875 372.980469 C 242.386719 371.402344 245.238281 371.75 245.535156 373.875 C 245.757812 375.46875 244.695312 376.332031 243.394531 376.785156 C 244.296875 377.460938 245.535156 377.777344 246.589844 377.867188 C 247.972656 377.984375 249.390625 377.714844 250.640625 377.105469 C 250.828125 377.011719 251.007812 376.910156 251.183594 376.804688 C 250.992188 376.507812 250.835938 376.191406 250.738281 375.84375 C 250.429688 374.765625 250.660156 373.492188 251.558594 372.757812 C 253.503906 371.164062 256.074219 373.242188 254.996094 375.492188 C 254.808594 375.882812 254.566406 376.242188 254.285156 376.582031 C 254.304688 376.589844 254.324219 376.605469 254.34375 376.613281 C 255.585938 377.234375 256.976562 377.507812 258.355469 377.492188 C 261.230469 377.460938 263.359375 375.960938 265.824219 374.746094 C 266.234375 374.542969 266.671875 374.988281 266.527344 375.398438 C 265.675781 377.8125 262.894531 379.152344 260.535156 379.597656 Z M 142.90625 292.117188 C 145.746094 292.730469 146.679688 288.3125 143.832031 287.699219 C 140.992188 287.089844 140.058594 291.507812 142.90625 292.117188 Z M 215.8125 281.171875 C 218.652344 281.785156 219.585938 277.363281 216.738281 276.753906 C 213.898438 276.140625 212.964844 280.558594 215.8125 281.171875 Z M 251.375 290.289062 C 251.582031 290.34375 251.789062 290.339844 251.992188 290.285156 C 252.207031 290.265625 252.402344 290.195312 252.582031 290.070312 C 252.773438 289.957031 252.925781 289.800781 253.039062 289.609375 C 253.175781 289.441406 253.261719 289.25 253.300781 289.03125 C 253.367188 288.621094 253.324219 288.171875 253.078125 287.824219 C 252.828125 287.464844 252.480469 287.199219 252.039062 287.101562 C 251.832031 287.054688 251.625 287.054688 251.421875 287.109375 C 251.207031 287.128906 251.011719 287.199219 250.832031 287.324219 C 250.636719 287.4375 250.484375 287.589844 250.375 287.785156 C 250.238281 287.953125 250.152344 288.144531 250.113281 288.363281 C 250.046875 288.773438 250.089844 289.222656 250.332031 289.570312 C 250.585938 289.929688 250.9375 290.195312 251.375 290.289062 Z M 222.847656 372.132812 C 222.394531 372.566406 222.035156 373.105469 221.921875 373.734375 C 221.792969 374.476562 221.8125 375.3125 222.234375 375.976562 C 222.664062 376.652344 223.296875 377.195312 224.09375 377.386719 C 224.585938 377.503906 225.113281 377.503906 225.601562 377.378906 C 225.609375 377.378906 225.617188 377.375 225.628906 377.371094 C 226.335938 377.195312 227.113281 376.617188 227.445312 375.964844 C 227.546875 375.714844 227.648438 375.464844 227.75 375.214844 C 227.878906 374.703125 227.871094 374.191406 227.734375 373.683594 C 227.621094 373.082031 227.269531 372.554688 226.832031 372.140625 C 225.710938 371.082031 223.972656 371.046875 222.847656 372.132812 Z M 228.835938 363.792969 C 228.382812 364.226562 228.027344 364.765625 227.914062 365.390625 C 227.78125 366.136719 227.800781 366.972656 228.226562 367.636719 C 228.65625 368.3125 229.285156 368.855469 230.085938 369.046875 C 230.574219 369.164062 231.105469 369.164062 231.589844 369.039062 C 231.601562 369.039062 231.609375 369.035156 231.621094 369.03125 C 232.328125 368.855469 233.101562 368.277344 233.4375 367.625 C 233.539062 367.375 233.636719 367.125 233.738281 366.875 C 233.867188 366.363281 233.863281 365.851562 233.726562 365.34375 C 233.613281 364.742188 233.261719 364.214844 232.824219 363.800781 C 231.699219 362.742188 229.960938 362.710938 228.835938 363.792969 Z M 236.617188 283.699219 C 237.152344 283.375 237.617188 282.925781 237.863281 282.335938 C 238.152344 281.636719 238.3125 280.820312 238.042969 280.078125 C 237.769531 279.324219 237.269531 278.660156 236.53125 278.300781 C 236.078125 278.082031 235.5625 277.96875 235.058594 277.984375 C 235.046875 277.984375 235.039062 277.984375 235.027344 277.984375 C 234.300781 278.003906 233.417969 278.402344 232.949219 278.96875 C 232.800781 279.191406 232.648438 279.410156 232.496094 279.632812 C 232.257812 280.105469 232.152344 280.609375 232.175781 281.136719 C 232.160156 281.746094 232.390625 282.335938 232.726562 282.835938 C 233.59375 284.109375 235.285156 284.515625 236.617188 283.699219 Z M 272.425781 319.527344 C 273.003906 318.960938 271.566406 318.148438 271.191406 317.597656 C 270.734375 316.929688 270.324219 316.148438 269.941406 315.433594 C 269.070312 313.796875 268.464844 312.011719 268.167969 310.183594 C 267.976562 308.984375 267.808594 307.621094 266.839844 306.765625 C 266.105469 306.121094 265.003906 306 264.15625 306.476562 C 262.820312 307.222656 262.554688 308.496094 262.769531 309.78125 C 262.796875 312.027344 263.832031 314.15625 265.238281 315.863281 C 266.585938 317.5 268.464844 319.105469 270.542969 319.65625 C 271.027344 319.785156 271.984375 319.957031 272.425781 319.527344 Z M 286.828125 372.128906 C 286.023438 372.085938 285.152344 371.933594 284.351562 371.800781 C 282.523438 371.496094 280.738281 370.894531 279.105469 370.011719 C 278.039062 369.433594 276.851562 368.738281 275.589844 368.988281 C 274.628906 369.175781 273.863281 369.976562 273.722656 370.9375 C 273.5 372.453125 274.347656 373.4375 275.5 374.050781 C 277.300781 375.394531 279.617188 375.871094 281.828125 375.796875 C 283.949219 375.71875 286.367188 375.207031 288.066406 373.894531 C 288.464844 373.589844 289.183594 372.933594 289.109375 372.324219 C 289.011719 371.519531 287.496094 372.164062 286.828125 372.128906 Z M 192.234375 274.5625 C 194.050781 274.941406 195.804688 275.636719 197.394531 276.585938 C 198.09375 277 198.851562 277.449219 199.496094 277.9375 C 200.027344 278.339844 200.769531 279.8125 201.363281 279.261719 C 201.8125 278.84375 201.6875 277.878906 201.585938 277.386719 C 201.136719 275.289062 199.621094 273.332031 198.054688 271.910156 C 196.414062 270.417969 194.335938 269.285156 192.09375 269.148438 C 190.820312 268.871094 189.535156 269.074219 188.726562 270.375 C 188.210938 271.199219 188.28125 272.304688 188.890625 273.070312 C 189.695312 274.078125 191.050781 274.3125 192.234375 274.5625 Z M 272.8125 310.011719 C 272.945312 311.414062 273.261719 312.796875 273.703125 314.132812 C 274.378906 316.183594 275.183594 317.714844 277.019531 318.929688 C 277.191406 319.039062 277.394531 319.152344 277.589844 319.089844 C 277.789062 319.03125 277.898438 318.804688 277.898438 318.597656 C 277.894531 318.386719 277.808594 318.191406 277.726562 318 C 276.226562 314.378906 277.296875 310.21875 277.851562 306.507812 C 278.039062 305.273438 278.382812 303.78125 277.195312 302.917969 C 276.359375 302.308594 275.148438 302.367188 274.308594 302.929688 C 272.246094 304.308594 272.605469 307.886719 272.8125 310.011719 Z M 240.9375 358.179688 C 240.074219 358.316406 239.328125 358.929688 239.023438 359.75 C 238.722656 360.5625 238.878906 361.488281 239.429688 362.160156 C 239.96875 362.816406 240.867188 363.179688 241.710938 363.023438 C 241.761719 363.015625 241.8125 363.007812 241.859375 363 C 242.695312 362.847656 243.40625 362.289062 243.703125 361.484375 C 243.996094 360.695312 243.835938 359.820312 243.316406 359.164062 C 243.28125 359.125 243.25 359.085938 243.222656 359.046875 C 242.683594 358.371094 241.78125 358.046875 240.9375 358.179688 Z M 257.09375 370.253906 C 260.09375 371.382812 261.828125 366.714844 258.820312 365.585938 C 255.824219 364.457031 254.085938 369.121094 257.09375 370.253906 Z M 209.132812 372.996094 C 208.863281 372.789062 208.585938 372.585938 208.304688 372.394531 C 206.421875 371.089844 204.332031 370.089844 202.136719 369.429688 C 200.855469 369.042969 199.539062 368.773438 198.210938 368.628906 C 197.25 368.523438 195.261719 368.558594 197.011719 369.542969 C 197.621094 369.886719 198.222656 370.257812 198.804688 370.65625 C 200.003906 371.476562 201.136719 372.402344 202.179688 373.417969 C 203.535156 374.738281 204.742188 376.207031 205.769531 377.796875 C 206.683594 379.207031 207.1875 380.28125 208.65625 381.160156 C 210.335938 382.164062 212.558594 381.433594 213.046875 379.464844 C 213.683594 376.90625 210.941406 374.378906 209.132812 372.996094 Z M 176.507812 267.328125 C 174.824219 267.851562 173.691406 269.851562 174.3125 271.550781 C 174.941406 273.273438 176.738281 274.304688 178.535156 273.746094 C 180.21875 273.222656 181.351562 271.222656 180.730469 269.523438 C 180.101562 267.800781 178.304688 266.769531 176.507812 267.328125 Z M 144.632812 345.324219 C 142.949219 345.847656 141.816406 347.847656 142.4375 349.546875 C 143.066406 351.269531 144.863281 352.300781 146.660156 351.742188 C 148.34375 351.21875 149.476562 349.21875 148.855469 347.519531 C 148.226562 345.796875 146.429688 344.765625 144.632812 345.324219 Z M 325.328125 342.414062 C 324.699219 340.695312 322.902344 339.664062 321.105469 340.222656 C 319.421875 340.742188 318.289062 342.746094 318.910156 344.445312 C 319.539062 346.164062 321.335938 347.199219 323.136719 346.640625 C 324.816406 346.117188 325.949219 344.117188 325.328125 342.414062 Z M 304.875 304.699219 C 306.558594 304.175781 307.691406 302.175781 307.070312 300.476562 C 306.441406 298.753906 304.644531 297.722656 302.84375 298.28125 C 301.164062 298.804688 300.03125 300.804688 300.652344 302.503906 C 301.28125 304.226562 303.078125 305.257812 304.875 304.699219 Z M 221.007812 313.671875 C 221.082031 313.855469 221.167969 314.039062 221.261719 314.214844 C 221.566406 314.78125 222.410156 314.589844 222.460938 313.949219 C 222.460938 313.941406 222.460938 313.9375 222.460938 313.933594 C 222.527344 313.214844 222.625 312.5 222.738281 311.785156 C 222.972656 310.359375 223.300781 308.949219 223.71875 307.566406 C 224.59375 304.683594 225.78125 301.902344 227.164062 299.226562 C 228.339844 296.949219 229.808594 294.90625 231.210938 292.773438 C 232.496094 290.820312 233.210938 288.277344 231.605469 286.28125 C 230.183594 284.511719 227.945312 284.820312 226.402344 286.222656 C 224.824219 287.65625 223.621094 289.6875 222.632812 291.550781 C 222.53125 291.738281 222.433594 291.929688 222.335938 292.125 C 220.480469 295.8125 219.476562 299.882812 219.4375 304.011719 C 219.421875 306.078125 219.632812 308.140625 220.035156 310.167969 C 220.265625 311.332031 220.546875 312.566406 221.007812 313.671875 Z M 137.476562 320.546875 C 138.335938 320.480469 139.316406 320.46875 140.152344 320.710938 C 140.328125 320.761719 140.644531 320.859375 140.980469 320.972656 C 141.277344 321.074219 141.507812 320.699219 141.28125 320.484375 C 139.300781 318.601562 136.886719 317.648438 134.164062 316.90625 C 131.472656 316.175781 127.914062 316.074219 125.769531 318.148438 C 124.214844 319.648438 124.058594 322.367188 126.015625 323.59375 C 128.128906 324.921875 130.542969 323.632812 132.320312 322.386719 C 133.832031 321.328125 135.640625 320.6875 137.476562 320.546875 Z M 134.28125 311.675781 C 137.121094 313.183594 139.648438 315.277344 141.628906 317.804688 C 141.863281 318.101562 142.34375 317.890625 142.28125 317.519531 C 141.820312 314.78125 140.929688 312.246094 139.496094 309.804688 C 138.03125 307.308594 135.753906 305.109375 132.972656 304.15625 C 130.984375 303.472656 126.648438 303.390625 126.859375 306.523438 C 127.082031 309.8125 132.019531 310.476562 134.28125 311.675781 Z M 143.414062 323.125 C 141.789062 322.941406 140.183594 323.105469 138.648438 323.734375 C 135.222656 325.136719 132.269531 328.710938 131.910156 332.476562 C 131.667969 335.050781 133.640625 338.058594 136.460938 336.722656 C 137.582031 336.191406 138.242188 334.976562 138.5 333.757812 C 138.757812 332.542969 138.6875 331.285156 138.777344 330.042969 C 138.902344 328.199219 139.414062 326.316406 140.640625 324.933594 C 141.371094 324.105469 142.355469 323.550781 143.421875 323.308594 C 143.523438 323.285156 143.515625 323.136719 143.414062 323.125 Z M 323.503906 331.417969 C 325.617188 330.488281 325.863281 327.777344 324.546875 326.066406 C 322.726562 323.699219 319.1875 323.28125 316.421875 323.609375 C 313.617188 323.945312 311.09375 324.535156 308.855469 326.109375 C 308.601562 326.289062 308.773438 326.695312 309.082031 326.636719 C 309.433594 326.570312 309.761719 326.523438 309.941406 326.496094 C 310.800781 326.378906 311.773438 326.535156 312.609375 326.726562 C 314.40625 327.132812 316.101562 328.035156 317.441406 329.300781 C 319.015625 330.792969 321.222656 332.421875 323.503906 331.417969 Z M 317.398438 374.683594 C 316.597656 374.515625 315.785156 374.625 314.980469 374.710938 C 313.980469 374.820312 312.980469 374.859375 311.976562 374.890625 C 310.085938 374.953125 308.207031 374.679688 306.378906 374.222656 C 303.1875 373.421875 299.09375 372.261719 296.472656 369.96875 C 296.320312 369.832031 296.101562 370.019531 296.207031 370.191406 C 297.851562 372.898438 300.515625 375.195312 303.082031 376.898438 C 305.5 378.5 308.242188 379.753906 310.988281 380.671875 C 312.71875 381.25 314.589844 381.808594 316.429688 381.503906 C 318.101562 381.226562 319.480469 380.007812 319.792969 378.3125 C 320.113281 376.597656 319.121094 375.039062 317.398438 374.683594 Z M 207.875 282.96875 C 210.210938 283.472656 210.980469 279.835938 208.636719 279.332031 C 206.300781 278.828125 205.53125 282.464844 207.875 282.96875 Z M 225.292969 281.980469 C 226.679688 282.28125 228.113281 281.332031 228.402344 279.949219 C 228.695312 278.550781 227.761719 277.140625 226.371094 276.839844 C 224.984375 276.542969 223.550781 277.492188 223.257812 278.875 C 222.96875 280.273438 223.902344 281.683594 225.292969 281.980469 Z M 256.355469 294.324219 C 258.347656 294.753906 259 291.660156 257.003906 291.230469 C 255.015625 290.800781 254.359375 293.898438 256.355469 294.324219 Z M 243.503906 287.066406 C 246.710938 287.757812 247.765625 282.769531 244.550781 282.074219 C 241.34375 281.386719 240.285156 286.375 243.503906 287.066406 Z M 158.011719 292.21875 C 158.828125 292.550781 158.183594 291.496094 158.089844 291.230469 C 157.878906 290.660156 157.773438 290.039062 157.738281 289.433594 C 157.644531 287.675781 158.292969 286.117188 159.261719 284.6875 C 160.464844 282.917969 162.40625 281.871094 164.199219 280.785156 C 166.285156 279.527344 170.226562 277.25 168.566406 274.210938 C 166.851562 271.074219 162.804688 272.902344 160.71875 274.472656 C 159.484375 275.402344 158.390625 276.277344 157.4375 277.507812 C 156.515625 278.691406 155.875 280.136719 155.425781 281.566406 C 154.972656 283 154.765625 284.546875 154.800781 286.050781 C 154.851562 288.351562 155.65625 291.261719 158.011719 292.21875 Z M 282.089844 317.820312 C 282.359375 318.570312 282.738281 319.253906 283.261719 319.839844 C 283.425781 320.027344 283.675781 320.21875 283.90625 320.113281 C 284.128906 320.015625 284.15625 319.710938 284.148438 319.464844 C 284.027344 315.140625 286.0625 310.503906 289.382812 307.683594 C 291.878906 305.566406 296.179688 303.980469 295.542969 299.925781 C 295.300781 298.398438 294.121094 297.175781 292.566406 297 C 290.988281 296.820312 289.441406 297.667969 288.289062 298.667969 C 285.738281 300.882812 283.871094 304.152344 282.808594 307.328125 C 281.847656 310.203125 280.933594 314.605469 282.089844 317.820312 Z M 235.042969 356.765625 C 236.621094 357.359375 237.539062 354.898438 235.953125 354.304688 C 234.375 353.707031 233.457031 356.167969 235.042969 356.765625 Z M 264.515625 369.105469 C 264.691406 369.238281 264.878906 369.316406 265.089844 369.347656 C 265.289062 369.410156 265.492188 369.421875 265.703125 369.382812 L 265.875 369.339844 C 266.167969 369.292969 266.429688 369.175781 266.65625 368.984375 C 266.890625 368.796875 267.054688 368.5625 267.160156 368.285156 C 267.289062 367.875 267.296875 367.441406 267.121094 367.042969 C 267.035156 366.828125 266.902344 366.65625 266.726562 366.515625 C 266.578125 366.351562 266.398438 366.234375 266.183594 366.167969 C 265.914062 366.066406 265.636719 366.039062 265.355469 366.085938 C 265.058594 366.132812 264.796875 366.25 264.566406 366.4375 C 264.519531 366.472656 264.472656 366.503906 264.425781 366.539062 C 264.324219 366.644531 264.226562 366.75 264.128906 366.855469 C 264 367.027344 263.917969 367.21875 263.886719 367.425781 C 263.839844 367.558594 263.828125 367.695312 263.847656 367.835938 C 263.835938 368.046875 263.878906 368.246094 263.972656 368.441406 C 264.101562 368.703125 264.289062 368.925781 264.515625 369.105469 Z M 245.40625 364.25 C 244.871094 365.914062 245.617188 367.742188 247.300781 368.378906 C 248.875 368.96875 250.902344 368.128906 251.429688 366.480469 C 251.964844 364.816406 251.214844 362.984375 249.535156 362.351562 C 247.960938 361.761719 245.933594 362.605469 245.40625 364.25 Z M 291.582031 379.65625 C 292.4375 378.476562 293.09375 376.296875 293.03125 374.839844 C 293.003906 374.28125 292.917969 373.738281 292.75 373.195312 C 292.628906 372.804688 292.527344 372.441406 292.378906 372.101562 C 292.269531 371.84375 291.882812 371.910156 291.867188 372.1875 C 291.773438 374.09375 290.539062 375.832031 288.925781 376.839844 C 286.585938 378.304688 283.25 378.515625 280.585938 378.097656 C 277.789062 377.660156 274.96875 376.578125 272.1875 377.722656 C 271.316406 378.082031 271.203125 379.289062 271.773438 379.933594 C 274.898438 383.488281 279.925781 385.378906 284.59375 384.246094 C 287.3125 383.585938 289.933594 381.929688 291.582031 379.65625 Z M 295.285156 378.132812 C 295.101562 377.726562 294.894531 377.339844 294.660156 376.960938 C 294.574219 376.824219 294.433594 376.574219 294.300781 376.484375 C 293.925781 376.230469 293.832031 376.886719 293.757812 377.128906 C 293.648438 377.511719 293.582031 377.90625 293.46875 378.292969 C 293.226562 379.117188 292.917969 379.921875 292.554688 380.703125 C 291.828125 382.261719 290.867188 383.710938 289.710938 384.984375 C 288.136719 386.722656 284.3125 387.8125 285.128906 390.886719 C 285.851562 393.605469 289.421875 392.769531 291.175781 391.738281 C 293.433594 390.410156 295.058594 388.144531 295.757812 385.628906 C 296.210938 383.992188 296.300781 382.246094 296.011719 380.570312 C 295.871094 379.734375 295.628906 378.910156 295.285156 378.132812 Z M 217.28125 367.625 C 215.789062 365.46875 213.410156 364.015625 210.851562 363.5 C 209.1875 363.167969 207.441406 363.207031 205.792969 363.613281 C 204.964844 363.816406 204.160156 364.113281 203.410156 364.519531 C 203.019531 364.726562 202.648438 364.964844 202.289062 365.226562 C 202.160156 365.320312 201.921875 365.480469 201.839844 365.617188 C 201.613281 366.011719 202.273438 366.058594 202.519531 366.109375 C 202.910156 366.195312 203.3125 366.230469 203.703125 366.316406 C 204.542969 366.5 205.371094 366.746094 206.171875 367.050781 C 207.78125 367.664062 209.296875 368.515625 210.652344 369.574219 C 212.5 371.019531 213.863281 374.757812 216.871094 373.71875 C 219.53125 372.796875 218.4375 369.300781 217.28125 367.625 Z M 193.960938 372.277344 C 192.535156 371.921875 190.824219 371.386719 189.367188 371.84375 C 187.355469 372.480469 190.175781 373.203125 190.839844 373.566406 C 191.800781 374.089844 192.65625 374.769531 193.371094 375.59375 C 194.507812 376.902344 195.445312 378.382812 196.246094 379.917969 C 196.929688 381.222656 197.511719 382.617188 197.878906 384.050781 C 198.242188 385.449219 197.949219 386.523438 199.109375 387.679688 C 200.191406 388.753906 201.953125 389.070312 203.195312 388.074219 C 204.347656 387.152344 204.792969 385.585938 204.722656 384.167969 C 204.433594 378.402344 199.488281 373.652344 193.960938 372.277344 Z M 137.101562 299.734375 C 137.671875 299.863281 138.238281 299.839844 138.800781 299.664062 C 139.339844 299.488281 139.804688 299.195312 140.195312 298.785156 C 140.210938 298.757812 140.230469 298.734375 140.25 298.710938 C 140.640625 298.289062 140.898438 297.796875 141.027344 297.234375 C 141.15625 296.675781 141.132812 296.117188 140.960938 295.570312 C 140.789062 295.039062 140.5 294.582031 140.097656 294.203125 C 139.675781 293.8125 139.183594 293.550781 138.621094 293.421875 C 138.59375 293.414062 138.566406 293.402344 138.535156 293.390625 C 137.964844 293.265625 137.398438 293.289062 136.835938 293.464844 C 136.296875 293.636719 135.832031 293.929688 135.441406 294.34375 C 134.648438 295.191406 134.367188 296.4375 134.71875 297.542969 C 135.0625 298.636719 135.980469 299.480469 137.101562 299.734375 Z M 314.148438 354.957031 C 314.722656 355.085938 315.289062 355.058594 315.847656 354.882812 C 316.386719 354.710938 316.851562 354.417969 317.242188 354.003906 C 317.261719 353.980469 317.277344 353.957031 317.296875 353.933594 C 317.6875 353.507812 317.949219 353.019531 318.078125 352.457031 C 318.203125 351.894531 318.179688 351.339844 318.007812 350.789062 C 317.835938 350.261719 317.550781 349.804688 317.144531 349.421875 C 316.722656 349.03125 316.230469 348.773438 315.667969 348.644531 C 315.640625 348.632812 315.613281 348.621094 315.582031 348.613281 C 315.011719 348.488281 314.445312 348.511719 313.886719 348.683594 C 313.34375 348.859375 312.878906 349.152344 312.488281 349.566406 C 311.695312 350.414062 311.414062 351.65625 311.765625 352.765625 C 312.113281 353.859375 313.03125 354.703125 314.148438 354.957031 Z M 312.046875 309.527344 C 312.621094 309.65625 313.1875 309.632812 313.746094 309.457031 C 314.285156 309.28125 314.75 308.992188 315.140625 308.578125 C 315.160156 308.550781 315.179688 308.527344 315.199219 308.503906 C 315.589844 308.082031 315.847656 307.589844 315.976562 307.03125 C 316.101562 306.46875 316.078125 305.910156 315.910156 305.363281 C 315.734375 304.832031 315.449219 304.375 315.046875 303.996094 C 314.621094 303.605469 314.132812 303.34375 313.570312 303.214844 C 313.542969 303.207031 313.511719 303.195312 313.484375 303.183594 C 312.910156 303.058594 312.34375 303.082031 311.785156 303.257812 C 311.246094 303.429688 310.78125 303.722656 310.390625 304.136719 C 309.597656 304.984375 309.3125 306.230469 309.664062 307.335938 C 310.011719 308.429688 310.929688 309.273438 312.046875 309.527344 Z M 269.214844 383.34375 C 268.792969 382.953125 268.300781 382.691406 267.742188 382.5625 C 267.710938 382.554688 267.683594 382.542969 267.65625 382.535156 C 267.082031 382.40625 266.515625 382.429688 265.957031 382.605469 C 265.417969 382.777344 264.949219 383.074219 264.5625 383.484375 C 263.765625 384.332031 263.484375 385.578125 263.835938 386.6875 C 264.183594 387.777344 265.101562 388.621094 266.21875 388.875 C 266.792969 389.003906 267.359375 388.980469 267.917969 388.804688 C 268.457031 388.628906 268.921875 388.335938 269.3125 387.925781 C 269.332031 387.902344 269.351562 387.875 269.367188 387.851562 C 269.757812 387.429688 270.019531 386.9375 270.148438 386.375 C 270.273438 385.816406 270.25 385.261719 270.078125 384.710938 C 269.90625 384.183594 269.621094 383.726562 269.214844 383.34375 Z M 228.375 306.214844 C 227.3125 307.765625 226.480469 309.488281 226.035156 311.316406 C 225.714844 312.628906 225.648438 314.121094 225.824219 315.464844 C 225.867188 315.789062 226.058594 316.203125 226.378906 316.125 C 226.578125 316.074219 226.664062 315.839844 226.730469 315.640625 C 227.074219 314.546875 227.664062 313.539062 228.429688 312.683594 C 231.136719 309.660156 234.765625 308.074219 238.582031 306.960938 C 241.492188 306.113281 244.492188 305.667969 247.480469 305.1875 C 248.90625 304.960938 250.328125 304.722656 251.746094 304.441406 C 252.855469 304.214844 254.023438 304.007812 254.960938 303.320312 C 257.15625 301.703125 255.992188 299.109375 254.046875 297.914062 C 251.992188 296.652344 249.480469 296.214844 247.101562 296.21875 C 243.5 296.230469 239.886719 297.25 236.6875 298.953125 C 233.429688 300.691406 230.464844 303.15625 228.375 306.214844 Z M 216.28125 314.394531 C 216.664062 314.628906 217.105469 314.195312 216.882812 313.804688 C 215.792969 311.914062 215.007812 310.3125 214.59375 307.769531 C 214.101562 304.734375 214.03125 301.589844 214.527344 298.546875 C 215.054688 295.296875 218.058594 290.269531 214.359375 287.816406 C 210.351562 285.160156 208.167969 291.804688 207.6875 294.589844 C 206.410156 302.019531 209.753906 310.40625 216.28125 314.394531 Z M 304.253906 380.898438 C 301.398438 379.425781 298.847656 377.363281 296.832031 374.859375 C 296.59375 374.566406 296.117188 374.785156 296.183594 375.15625 C 296.675781 377.886719 297.601562 380.414062 299.066406 382.835938 C 300.5625 385.3125 302.863281 387.484375 305.660156 388.402344 C 307.65625 389.058594 311.992188 389.085938 311.742188 385.957031 C 311.480469 382.671875 306.535156 382.070312 304.253906 380.898438 Z M 308.902344 323.410156 C 311.234375 321.199219 314.039062 319.492188 317.070312 318.421875 C 319.484375 317.5625 324.464844 317.628906 325.164062 314.40625 C 325.832031 311.339844 321.53125 310.789062 319.464844 311.171875 C 316.570312 311.707031 314 313.550781 312.183594 315.804688 C 310.40625 318.007812 309.15625 320.386719 308.300781 323.027344 C 308.183594 323.386719 308.628906 323.667969 308.902344 323.410156 Z M 277.875 296.820312 C 278.222656 297.371094 278.691406 297.804688 279.285156 298.117188 C 279.683594 298.28125 280.085938 298.445312 280.488281 298.609375 C 281.109375 298.796875 281.730469 298.820312 282.351562 298.683594 C 282.980469 298.652344 283.566406 298.46875 284.113281 298.128906 C 284.160156 298.09375 284.207031 298.058594 284.253906 298.023438 C 284.296875 298.003906 284.339844 297.988281 284.378906 297.972656 C 284.941406 297.679688 285.394531 297.269531 285.726562 296.746094 C 286.03125 296.445312 286.238281 296.085938 286.347656 295.671875 C 286.632812 295.117188 286.761719 294.523438 286.734375 293.890625 L 286.578125 292.707031 C 286.425781 292.339844 286.273438 291.972656 286.121094 291.605469 C 285.839844 291.0625 285.449219 290.628906 284.953125 290.296875 C 284.882812 290.234375 284.808594 290.175781 284.734375 290.117188 C 284.722656 290.105469 284.707031 290.09375 284.695312 290.085938 C 284.617188 290.023438 284.539062 289.964844 284.453125 289.910156 C 284.378906 289.859375 284.304688 289.8125 284.226562 289.769531 C 284.195312 289.753906 284.167969 289.734375 284.136719 289.714844 C 284.113281 289.707031 284.09375 289.699219 284.074219 289.691406 C 283.929688 289.617188 283.777344 289.558594 283.617188 289.503906 C 283.390625 289.410156 283.160156 289.316406 282.929688 289.222656 C 282.308594 289.035156 281.691406 289.011719 281.070312 289.148438 C 280.441406 289.179688 279.851562 289.367188 279.308594 289.703125 C 278.972656 289.957031 278.636719 290.207031 278.304688 290.460938 C 277.804688 290.917969 277.460938 291.460938 277.261719 292.09375 C 276.964844 292.667969 276.828125 293.285156 276.859375 293.941406 L 277.023438 295.171875 C 277.167969 295.800781 277.453125 296.351562 277.875 296.820312 Z M 265.21875 299.234375 C 265.570312 299.789062 266.039062 300.21875 266.628906 300.53125 C 267.03125 300.699219 267.433594 300.863281 267.832031 301.027344 C 268.457031 301.210938 269.074219 301.238281 269.695312 301.101562 C 270.324219 301.066406 270.910156 300.882812 271.457031 300.546875 C 271.503906 300.511719 271.550781 300.472656 271.597656 300.4375 C 271.640625 300.421875 271.683594 300.402344 271.726562 300.386719 C 272.289062 300.09375 272.738281 299.683594 273.070312 299.164062 C 273.375 298.859375 273.582031 298.5 273.695312 298.085938 C 273.980469 297.535156 274.109375 296.941406 274.082031 296.308594 L 273.921875 295.125 C 273.769531 294.757812 273.621094 294.386719 273.46875 294.019531 C 273.183594 293.476562 272.792969 293.042969 272.296875 292.714844 C 272.230469 292.648438 272.152344 292.589844 272.082031 292.535156 C 272.066406 292.523438 272.054688 292.511719 272.042969 292.5 C 271.964844 292.441406 271.882812 292.382812 271.800781 292.324219 C 271.726562 292.277344 271.648438 292.230469 271.570312 292.1875 C 271.539062 292.167969 271.511719 292.148438 271.480469 292.132812 C 271.460938 292.125 271.4375 292.117188 271.417969 292.105469 C 271.273438 292.035156 271.121094 291.972656 270.964844 291.917969 C 270.734375 291.824219 270.503906 291.730469 270.277344 291.636719 C 269.65625 291.453125 269.035156 291.425781 268.414062 291.566406 C 267.785156 291.597656 267.199219 291.78125 266.652344 292.117188 C 266.320312 292.371094 265.984375 292.625 265.648438 292.878906 C 265.152344 293.332031 264.804688 293.878906 264.609375 294.507812 C 264.308594 295.082031 264.175781 295.699219 264.203125 296.359375 L 264.371094 297.585938 C 264.515625 298.21875 264.796875 298.765625 265.21875 299.234375 Z M 309.9375 335.933594 C 310.082031 334.089844 309.851562 332.152344 308.84375 330.605469 C 308.238281 329.679688 307.347656 328.984375 306.328125 328.589844 C 306.230469 328.550781 306.257812 328.40625 306.363281 328.410156 C 307.996094 328.464844 309.558594 328.863281 310.988281 329.707031 C 314.171875 331.597656 316.570312 335.566406 316.375 339.34375 C 316.238281 341.925781 313.847656 344.613281 311.253906 342.882812 C 310.21875 342.191406 309.746094 340.890625 309.667969 339.648438 C 309.59375 338.40625 309.84375 337.171875 309.9375 335.933594 " fill-opacity="1" fill-rule="nonzero"/></g><path fill="#d91023" d="M 288.371094 323.320312 C 289.339844 321.34375 290.296875 319.378906 291.238281 317.402344 C 292.175781 315.449219 293.625 313.691406 294.964844 311.996094 C 297.292969 309.046875 303.777344 311.894531 300.886719 315.085938 C 298.03125 318.242188 295.136719 321.488281 292.976562 325.152344 C 291.761719 327.210938 287.179688 325.757812 288.371094 323.320312 Z M 205.96875 346.886719 C 206.191406 343.296875 207.121094 339.617188 208.460938 336.285156 C 209.433594 333.863281 211.167969 329.527344 214.164062 329.070312 C 218.097656 328.472656 218.371094 334.386719 217.53125 336.847656 C 216.40625 340.152344 213.835938 342.980469 211.339844 345.34375 C 209.660156 346.933594 207.867188 348.261719 205.996094 349.429688 C 205.925781 348.519531 205.921875 347.644531 205.96875 346.886719 Z M 319.011719 359.984375 C 318.894531 359.324219 318.042969 359.21875 317.539062 359.410156 C 315.964844 360.007812 314.949219 361.472656 313.507812 362.324219 C 312.160156 363.121094 310.480469 363.785156 308.894531 363.8125 C 305.789062 363.863281 303.429688 361.457031 301.882812 359.007812 C 300.011719 356.050781 299.445312 352.578125 299.617188 349.125 C 299.839844 344.703125 301.75 340.511719 301.714844 336.121094 C 301.695312 333.703125 297.414062 333.566406 296.34375 335.171875 C 294.773438 337.539062 294.132812 340.519531 293.539062 343.269531 C 292.972656 345.878906 292.65625 348.546875 292.789062 351.214844 C 291.925781 353.273438 290.957031 355.234375 289.53125 357.113281 C 288.730469 358.167969 287.820312 359.191406 286.636719 359.792969 C 280.492188 362.90625 278.960938 353.367188 279.222656 349.34375 C 279.605469 343.480469 283.5 337.046875 280.265625 331.382812 C 279.25 329.609375 275.902344 329.332031 275.222656 331.515625 C 274.6875 333.230469 274.71875 335.125 274.429688 336.90625 C 274.132812 338.753906 273.675781 340.558594 273.226562 342.375 C 273.203125 342.46875 273.179688 342.566406 273.15625 342.664062 C 272.171875 344.785156 270.90625 346.777344 269.382812 348.550781 C 268.003906 350.15625 266.382812 351.617188 264.433594 352.4375 C 261.898438 353.507812 258.148438 353.554688 257.046875 350.539062 C 256.203125 348.234375 256.421875 345.714844 256.949219 343.367188 C 258.125 338.15625 259.972656 333.035156 261.515625 327.917969 C 261.890625 326.664062 260.476562 325.460938 259.480469 325.0625 C 258.148438 324.53125 256.632812 324.683594 255.492188 325.550781 C 252.867188 327.542969 248.816406 329.785156 245.433594 328.421875 C 242.25 327.136719 241.460938 324.023438 241.988281 320.980469 C 242.488281 318.085938 237.300781 316.988281 235.992188 319.285156 C 234.8125 321.355469 234.847656 323.578125 235.613281 325.640625 C 233.3125 332.148438 230.183594 338.300781 226.472656 344.175781 C 224.078125 347.976562 221.554688 351.703125 217.800781 354.238281 C 215.253906 355.957031 210.476562 358.476562 207.933594 355.429688 C 207.265625 354.628906 206.800781 353.554688 206.484375 352.390625 C 209.035156 350.910156 211.40625 349.117188 213.5 347.167969 C 218.027344 342.953125 223.941406 335.667969 219.722656 329.363281 C 218.035156 326.839844 215.144531 325.152344 212.066406 325.660156 C 208.652344 326.222656 206.210938 328.824219 204.53125 331.683594 C 201.238281 337.292969 198.214844 345.808594 200.246094 352.445312 C 198.1875 353.371094 196.066406 354.203125 193.902344 355.027344 C 192.992188 355.371094 193.953125 356.347656 194.574219 356.304688 C 196.863281 356.140625 199.121094 355.617188 201.300781 354.828125 C 202.960938 357.421875 206.105469 359.152344 209.050781 359.671875 C 209.59375 359.765625 210.199219 359.820312 210.828125 359.824219 C 213.53125 359.878906 216.496094 358.699219 218.535156 357.519531 C 222.515625 355.210938 225.472656 351.535156 228.03125 347.796875 C 232.027344 341.96875 235.136719 335.605469 237.574219 328.984375 C 238.960938 330.683594 240.757812 332.0625 242.539062 332.847656 C 245.910156 334.335938 249.523438 334.253906 252.933594 333.25 C 252.53125 334.640625 252.128906 336.027344 251.726562 337.417969 C 250.742188 340.832031 249.496094 344.441406 250.207031 348.035156 C 250.777344 350.929688 252.84375 353.195312 255.496094 354.4375 C 256.421875 354.871094 258.070312 355.417969 259.488281 355.378906 C 264.28125 355.542969 269.007812 352.089844 272.074219 348.589844 C 271.964844 349.800781 271.941406 351.023438 272.046875 352.261719 C 272.398438 356.355469 275.039062 360.296875 278.835938 361.949219 C 282.964844 363.746094 287.75 362.246094 290.929688 359.28125 C 292.015625 358.273438 292.875 357.164062 293.597656 355.988281 C 294.484375 358.980469 296.082031 361.832031 298.378906 363.792969 C 301.820312 366.726562 306.171875 367.660156 310.566406 366.890625 C 312.578125 366.539062 314.4375 365.699219 316.074219 364.480469 C 317.453125 363.457031 319.355469 361.878906 319.011719 359.984375 Z M 155.6875 318.105469 C 155.488281 316.988281 155.308594 315.871094 155.136719 314.753906 C 156.457031 310.988281 157.996094 307.296875 159.75 303.726562 C 162.328125 298.480469 165.347656 293.25 169.636719 289.203125 C 173.417969 285.636719 178.773438 282.636719 184.164062 283.488281 C 196.28125 285.394531 195.5625 299.59375 193.84375 308.839844 C 192.003906 318.738281 187.390625 328.117188 180.878906 335.785156 C 176.554688 340.878906 171.414062 345.253906 165.683594 348.605469 C 160.949219 338.960938 157.570312 328.695312 155.6875 318.105469 Z M 183.503906 374.851562 C 181.484375 372.640625 179.554688 370.347656 177.71875 367.984375 C 174.316406 363.609375 171.277344 358.949219 168.574219 354.109375 C 184.828125 345.390625 197.097656 329.5 200.839844 311.265625 C 203.113281 300.191406 202.417969 284.054688 188.925781 280.792969 C 183.640625 279.515625 177.496094 280.265625 172.671875 282.75 C 167.152344 285.585938 162.980469 290.445312 159.730469 295.628906 C 157.617188 299.003906 155.757812 302.574219 154.15625 306.257812 C 154.003906 303.261719 154.097656 300.167969 153.535156 297.265625 C 153.042969 294.710938 148.089844 294.011719 147.472656 296.820312 C 146.808594 299.867188 147.210938 303.335938 147.394531 306.429688 C 147.578125 309.527344 147.894531 312.613281 148.332031 315.683594 C 148.585938 317.457031 148.894531 319.226562 149.242188 320.984375 C 148.640625 323.550781 148.15625 326.144531 147.816406 328.769531 C 147.542969 330.859375 147.398438 332.976562 147.261719 335.078125 C 147.136719 337.070312 147.523438 338.902344 147.578125 340.886719 C 147.589844 341.398438 148.691406 341.511719 148.757812 340.976562 C 148.960938 339.355469 149.574219 337.886719 149.796875 336.28125 C 150.011719 334.683594 150.257812 333.09375 150.597656 331.523438 C 150.777344 330.683594 150.964844 329.847656 151.152344 329.011719 C 151.628906 330.722656 152.136719 332.421875 152.683594 334.109375 C 154.632812 340.121094 157.039062 345.945312 159.878906 351.550781 C 157.539062 352.566406 155.125 353.425781 152.636719 354.089844 C 151.074219 354.507812 149.960938 355.90625 150.722656 357.503906 C 151.480469 359.089844 153.824219 359.730469 155.40625 359.3125 C 157.910156 358.65625 160.355469 357.828125 162.738281 356.855469 C 164.964844 360.757812 167.40625 364.542969 170.070312 368.191406 C 172.160156 371.058594 174.375 373.828125 176.726562 376.484375 C 179.085938 379.160156 181.683594 382.679688 185.101562 383.972656 C 186.371094 384.453125 189.882812 384.125 189.191406 381.902344 C 188.300781 379.03125 185.480469 377.015625 183.503906 374.851562 " fill-opacity="1" fill-rule="nonzero"/><path fill="#ffc300" d="M 144.035156 290.0625 C 144.109375 289.71875 144.078125 289.285156 143.515625 289.164062 C 142.972656 289.046875 142.773438 289.421875 142.703125 289.753906 C 142.628906 290.097656 142.660156 290.535156 143.222656 290.652344 C 143.765625 290.773438 143.964844 290.398438 144.035156 290.0625 Z M 216.125 279.707031 C 216.671875 279.824219 216.871094 279.449219 216.941406 279.117188 C 217.015625 278.773438 216.988281 278.339844 216.421875 278.21875 C 215.878906 278.097656 215.679688 278.472656 215.609375 278.808594 C 215.535156 279.152344 215.566406 279.585938 216.125 279.707031 Z M 251.675781 288.824219 C 251.707031 288.816406 251.742188 288.808594 251.773438 288.804688 C 251.792969 288.777344 251.808594 288.75 251.832031 288.722656 C 251.832031 288.691406 251.832031 288.667969 251.832031 288.648438 C 251.804688 288.617188 251.769531 288.585938 251.738281 288.570312 C 251.703125 288.578125 251.671875 288.585938 251.640625 288.589844 C 251.621094 288.617188 251.601562 288.644531 251.582031 288.671875 C 251.582031 288.703125 251.582031 288.726562 251.582031 288.742188 C 251.609375 288.773438 251.640625 288.808594 251.675781 288.824219 Z M 226.265625 373.960938 C 226.21875 373.726562 226.054688 373.46875 225.804688 373.230469 C 225.53125 372.972656 225.179688 372.828125 224.8125 372.832031 C 224.570312 372.832031 224.210938 372.898438 223.882812 373.210938 C 223.695312 373.394531 223.453125 373.679688 223.398438 373.996094 C 223.308594 374.511719 223.339844 374.929688 223.5 375.171875 C 223.679688 375.460938 223.992188 375.820312 224.441406 375.929688 C 224.574219 375.960938 224.707031 375.976562 224.84375 375.976562 C 224.976562 375.976562 225.109375 375.960938 225.230469 375.929688 L 225.265625 375.921875 C 225.554688 375.847656 225.941406 375.5625 226.089844 375.320312 L 226.316406 374.765625 C 226.359375 374.53125 226.351562 374.304688 226.289062 374.070312 C 226.28125 374.035156 226.269531 373.996094 226.265625 373.960938 Z M 232.253906 365.621094 C 232.210938 365.386719 232.046875 365.128906 231.792969 364.890625 C 231.519531 364.632812 231.167969 364.488281 230.804688 364.492188 C 230.558594 364.492188 230.199219 364.558594 229.875 364.871094 C 229.683594 365.054688 229.445312 365.339844 229.390625 365.65625 C 229.296875 366.171875 229.332031 366.589844 229.488281 366.832031 C 229.671875 367.121094 229.980469 367.480469 230.433594 367.589844 C 230.5625 367.621094 230.699219 367.636719 230.835938 367.636719 C 230.96875 367.636719 231.101562 367.621094 231.21875 367.589844 L 231.253906 367.582031 C 231.546875 367.507812 231.933594 367.222656 232.082031 366.980469 L 232.304688 366.425781 C 232.351562 366.191406 232.34375 365.964844 232.277344 365.734375 C 232.269531 365.695312 232.261719 365.65625 232.253906 365.621094 Z M 233.964844 281.992188 C 234.179688 282.304688 234.492188 282.519531 234.847656 282.59375 C 235.085938 282.648438 235.453125 282.65625 235.835938 282.425781 C 236.0625 282.285156 236.355469 282.058594 236.480469 281.761719 C 236.679688 281.28125 236.734375 280.863281 236.636719 280.589844 C 236.519531 280.273438 236.292969 279.851562 235.875 279.648438 C 235.757812 279.589844 235.628906 279.546875 235.492188 279.515625 C 235.363281 279.488281 235.230469 279.476562 235.109375 279.480469 L 235.074219 279.480469 C 234.773438 279.492188 234.335938 279.683594 234.136719 279.890625 L 233.796875 280.382812 C 233.703125 280.601562 233.664062 280.824219 233.671875 281.066406 C 233.675781 281.105469 233.675781 281.144531 233.675781 281.179688 C 233.667969 281.417969 233.769531 281.707031 233.964844 281.992188 Z M 268.621094 316.136719 C 267.660156 314.332031 267.007812 312.410156 266.691406 310.417969 L 266.660156 310.230469 C 266.515625 309.304688 266.363281 308.34375 265.851562 307.890625 C 265.59375 307.664062 265.179688 307.617188 264.886719 307.78125 C 264.730469 307.871094 264.601562 307.96875 264.503906 308.074219 C 264.222656 308.386719 264.136719 308.875 264.246094 309.53125 C 264.257812 309.605469 264.265625 309.683594 264.265625 309.761719 C 264.289062 311.441406 265.042969 313.269531 266.394531 314.910156 C 267.328125 316.042969 268.367188 316.953125 269.394531 317.550781 C 269.136719 317.109375 268.902344 316.664062 268.679688 316.25 Z M 275.875 370.457031 C 275.542969 370.523438 275.253906 370.820312 275.203125 371.15625 C 275.175781 371.332031 275.175781 371.492188 275.203125 371.636719 C 275.277344 372.046875 275.613281 372.414062 276.199219 372.726562 C 276.269531 372.761719 276.332031 372.804688 276.398438 372.851562 C 277.742188 373.859375 279.652344 374.371094 281.777344 374.296875 C 283.242188 374.246094 284.601562 373.972656 285.699219 373.523438 C 285.191406 373.460938 284.695312 373.375 284.234375 373.300781 L 284.105469 373.277344 C 282.089844 372.941406 280.167969 372.285156 278.394531 371.328125 L 278.226562 371.238281 C 277.402344 370.789062 276.550781 370.324219 275.875 370.457031 Z M 198.273438 275.363281 C 198.675781 275.605469 199.109375 275.863281 199.539062 276.140625 C 198.988281 275.085938 198.128906 274.003906 197.046875 273.015625 C 195.472656 271.585938 193.683594 270.746094 192.003906 270.644531 C 191.925781 270.636719 191.847656 270.628906 191.773438 270.613281 C 191.125 270.46875 190.632812 270.53125 190.308594 270.796875 C 190.199219 270.890625 190.09375 271.015625 190 271.164062 C 189.820312 271.449219 189.847656 271.867188 190.058594 272.132812 C 190.488281 272.667969 191.4375 272.867188 192.359375 273.058594 L 192.542969 273.09375 C 194.515625 273.507812 196.40625 274.25 198.160156 275.296875 Z M 274.300781 309.867188 C 274.417969 311.085938 274.695312 312.367188 275.125 313.664062 C 275.246094 314.023438 275.363281 314.355469 275.492188 314.671875 C 275.359375 312.386719 275.746094 310.082031 276.101562 307.960938 C 276.199219 307.378906 276.289062 306.832031 276.371094 306.285156 C 276.386719 306.1875 276.402344 306.089844 276.417969 305.988281 C 276.59375 304.878906 276.621094 304.351562 276.316406 304.128906 C 276.136719 304 275.867188 303.953125 275.589844 304 C 275.425781 304.027344 275.269531 304.089844 275.140625 304.175781 C 273.835938 305.046875 274.136719 308.160156 274.296875 309.828125 Z M 242.050781 359.976562 C 241.957031 359.863281 241.828125 359.773438 241.671875 359.714844 C 241.511719 359.652344 241.335938 359.632812 241.171875 359.660156 C 240.84375 359.710938 240.546875 359.957031 240.429688 360.269531 C 240.3125 360.582031 240.375 360.953125 240.585938 361.210938 C 240.691406 361.335938 240.839844 361.441406 241.003906 361.503906 C 241.15625 361.558594 241.308594 361.578125 241.441406 361.554688 L 241.59375 361.523438 C 241.929688 361.464844 242.191406 361.253906 242.300781 360.964844 C 242.40625 360.679688 242.347656 360.355469 242.144531 360.097656 Z M 258.292969 366.984375 C 257.925781 366.84375 257.714844 366.917969 257.589844 366.988281 C 257.386719 367.097656 257.214844 367.316406 257.113281 367.585938 C 257.003906 367.871094 256.84375 368.558594 257.621094 368.851562 C 258.378906 369.136719 258.699219 368.527344 258.804688 368.25 C 258.910156 367.96875 259.074219 367.277344 258.292969 366.984375 Z M 208.222656 374.183594 C 207.972656 373.992188 207.714844 373.804688 207.453125 373.625 C 205.703125 372.414062 203.769531 371.484375 201.703125 370.863281 C 201.636719 370.84375 201.566406 370.820312 201.496094 370.800781 C 202.09375 371.292969 202.671875 371.804688 203.222656 372.34375 C 204.664062 373.746094 205.941406 375.304688 207.027344 376.980469 C 207.171875 377.207031 207.308594 377.421875 207.4375 377.628906 C 208.097656 378.683594 208.492188 379.316406 209.425781 379.875 C 210.03125 380.238281 210.800781 380.175781 211.253906 379.726562 C 211.417969 379.5625 211.535156 379.355469 211.59375 379.105469 C 211.902344 377.855469 210.675781 376.058594 208.222656 374.183594 Z M 176.949219 268.757812 C 176.492188 268.902344 176.078125 269.277344 175.835938 269.761719 C 175.710938 270.015625 175.527344 270.519531 175.71875 271.039062 C 176.09375 272.070312 177.117188 272.621094 178.09375 272.316406 C 178.546875 272.175781 178.964844 271.800781 179.207031 271.3125 C 179.332031 271.058594 179.515625 270.558594 179.324219 270.035156 C 178.949219 269.003906 177.925781 268.453125 176.949219 268.757812 Z M 145.074219 346.753906 C 144.617188 346.894531 144.203125 347.269531 143.960938 347.757812 C 143.835938 348.011719 143.652344 348.511719 143.84375 349.035156 C 144.21875 350.066406 145.242188 350.613281 146.21875 350.3125 C 146.671875 350.167969 147.089844 349.796875 147.332031 349.308594 C 147.457031 349.054688 147.640625 348.550781 147.449219 348.03125 C 147.070312 347 146.050781 346.449219 145.074219 346.753906 Z M 323.921875 342.929688 C 323.546875 341.898438 322.523438 341.347656 321.546875 341.652344 C 321.089844 341.792969 320.675781 342.167969 320.4375 342.65625 C 320.308594 342.910156 320.128906 343.410156 320.316406 343.933594 C 320.695312 344.964844 321.714844 345.511719 322.691406 345.207031 C 323.148438 345.066406 323.5625 344.691406 323.804688 344.207031 C 323.929688 343.953125 324.113281 343.449219 323.921875 342.929688 Z M 304.433594 303.269531 C 304.890625 303.128906 305.304688 302.753906 305.546875 302.265625 C 305.671875 302.011719 305.851562 301.511719 305.664062 300.988281 C 305.285156 299.957031 304.265625 299.410156 303.289062 299.710938 C 302.835938 299.851562 302.417969 300.230469 302.175781 300.714844 C 302.050781 300.96875 301.867188 301.472656 302.058594 301.992188 C 302.433594 303.023438 303.457031 303.574219 304.433594 303.269531 Z M 229.039062 293.328125 C 229.347656 292.871094 229.65625 292.414062 229.960938 291.949219 C 230.679688 290.855469 231.699219 288.785156 230.441406 287.21875 C 230.265625 287 230.066406 286.832031 229.855469 286.722656 C 229.167969 286.367188 228.207031 286.605469 227.410156 287.332031 C 225.976562 288.632812 224.859375 290.550781 223.953125 292.25 C 223.859375 292.429688 223.765625 292.613281 223.671875 292.796875 C 221.917969 296.285156 220.972656 300.167969 220.9375 304.027344 C 220.917969 305.925781 221.109375 307.894531 221.5 309.875 C 221.515625 309.933594 221.527344 309.996094 221.539062 310.058594 C 221.746094 309.074219 221.996094 308.09375 222.285156 307.132812 C 223.140625 304.320312 224.296875 301.511719 225.832031 298.539062 C 226.792969 296.683594 227.933594 294.976562 229.039062 293.328125 Z M 133.773438 318.351562 C 131.484375 317.730469 128.453125 317.632812 126.808594 319.226562 C 126.332031 319.683594 126.058594 320.34375 126.074219 320.984375 C 126.082031 321.390625 126.21875 321.953125 126.808594 322.324219 C 127.886719 323 129.363281 322.632812 131.460938 321.160156 C 132.914062 320.144531 134.582031 319.464844 136.335938 319.175781 C 135.488281 318.84375 134.621094 318.585938 133.773438 318.351562 Z M 132.484375 305.570312 C 131.292969 305.164062 129.390625 305.125 128.628906 305.6875 C 128.480469 305.792969 128.335938 305.933594 128.347656 306.347656 C 128.351562 306.371094 128.351562 306.398438 128.351562 306.421875 C 128.445312 307.78125 130.265625 308.542969 132.636719 309.394531 C 133.496094 309.703125 134.308594 309.996094 134.984375 310.355469 C 136.660156 311.242188 138.238281 312.332031 139.667969 313.578125 C 139.265625 312.542969 138.78125 311.539062 138.203125 310.5625 C 136.789062 308.152344 134.703125 306.332031 132.484375 305.570312 Z M 133.402344 332.621094 C 133.390625 332.742188 133.386719 332.871094 133.390625 332.996094 C 133.414062 333.992188 133.890625 334.996094 134.523438 335.386719 C 134.761719 335.53125 135.152344 335.6875 135.816406 335.371094 C 136.382812 335.105469 136.835938 334.386719 137.035156 333.449219 C 137.179688 332.757812 137.203125 332 137.226562 331.199219 C 137.238281 330.792969 137.25 330.367188 137.28125 329.9375 C 137.402344 328.214844 137.796875 326.71875 138.460938 325.472656 C 135.746094 326.902344 133.671875 329.789062 133.402344 332.621094 Z M 322.902344 330.046875 C 323.542969 329.765625 323.757812 329.230469 323.828125 328.828125 C 323.9375 328.195312 323.761719 327.503906 323.359375 326.976562 C 321.964844 325.164062 318.949219 324.816406 316.597656 325.097656 C 315.722656 325.203125 314.828125 325.335938 313.941406 325.535156 C 315.628906 326.078125 317.183594 326.992188 318.472656 328.214844 C 320.332031 329.972656 321.738281 330.558594 322.902344 330.046875 Z M 317.09375 376.148438 C 316.578125 376.042969 315.957031 376.113281 315.296875 376.183594 L 315.144531 376.203125 C 314.097656 376.316406 313.070312 376.355469 312.023438 376.390625 C 310.148438 376.453125 308.183594 376.21875 306.011719 375.675781 C 304.867188 375.386719 303.71875 375.078125 302.589844 374.722656 C 303.015625 375.039062 303.457031 375.347656 303.910156 375.652344 C 306.09375 377.097656 308.632812 378.308594 311.460938 379.25 C 313.105469 379.800781 314.707031 380.273438 316.183594 380.027344 C 317.292969 379.839844 318.132812 379.0625 318.320312 378.042969 C 318.421875 377.511719 318.304688 377.023438 318 376.660156 C 317.78125 376.402344 317.46875 376.226562 317.09375 376.148438 Z M 208.191406 281.503906 C 208.304688 281.527344 208.472656 281.566406 208.546875 281.222656 C 208.578125 281.074219 208.550781 280.957031 208.523438 280.902344 C 208.511719 280.882812 208.484375 280.828125 208.320312 280.792969 C 208.210938 280.769531 208.039062 280.734375 207.96875 281.078125 C 207.933594 281.222656 207.960938 281.339844 207.988281 281.398438 C 208 281.417969 208.03125 281.46875 208.191406 281.503906 Z M 225.605469 280.519531 C 225.875 280.578125 226.175781 280.515625 226.433594 280.347656 C 226.695312 280.175781 226.878906 279.921875 226.9375 279.640625 C 227.058594 279.058594 226.648438 278.433594 226.054688 278.304688 C 225.785156 278.246094 225.484375 278.308594 225.230469 278.476562 C 224.96875 278.648438 224.785156 278.902344 224.726562 279.179688 C 224.601562 279.765625 225.015625 280.390625 225.605469 280.519531 Z M 256.644531 292.855469 C 256.652344 292.859375 256.660156 292.859375 256.671875 292.863281 C 256.675781 292.863281 256.679688 292.863281 256.683594 292.867188 C 256.707031 292.820312 256.722656 292.75 256.71875 292.703125 C 256.710938 292.699219 256.679688 292.691406 256.675781 292.691406 C 256.652344 292.738281 256.640625 292.808594 256.644531 292.855469 Z M 243.820312 285.601562 C 244.660156 285.785156 244.902344 285.09375 244.96875 284.789062 C 245.035156 284.472656 245.097656 283.726562 244.234375 283.539062 C 243.773438 283.441406 243.5625 283.601562 243.492188 283.65625 C 243.296875 283.804688 243.148438 284.058594 243.082031 284.355469 C 243.019531 284.667969 242.953125 285.417969 243.820312 285.601562 Z M 166.148438 274.042969 C 164.882812 273.769531 162.914062 274.691406 161.621094 275.667969 C 160.898438 276.210938 160.308594 276.675781 159.773438 277.171875 C 159.332031 277.582031 158.953125 277.992188 158.621094 278.425781 C 157.910156 279.335938 157.316406 280.546875 156.851562 282.015625 C 156.460938 283.261719 156.265625 284.644531 156.296875 286.015625 C 156.308594 286.457031 156.347656 286.910156 156.425781 287.363281 C 156.6875 286.199219 157.21875 285.035156 158.023438 283.847656 C 158.402344 283.289062 158.847656 282.777344 159.386719 282.277344 C 160.472656 281.269531 161.714844 280.527344 162.914062 279.808594 C 163.085938 279.707031 163.253906 279.609375 163.425781 279.507812 L 163.574219 279.414062 C 164.453125 278.882812 165.546875 278.226562 166.386719 277.449219 C 167.871094 276.066406 167.46875 275.324219 167.25 274.929688 C 166.972656 274.417969 166.632812 274.144531 166.148438 274.042969 Z M 283.097656 315.390625 C 283.917969 311.980469 285.816406 308.75 288.414062 306.542969 C 289.054688 306 289.78125 305.503906 290.484375 305.019531 C 292.914062 303.359375 294.390625 302.234375 294.0625 300.160156 C 293.917969 299.257812 293.25 298.585938 292.394531 298.484375 C 292 298.441406 291.566406 298.5 291.109375 298.667969 C 290.507812 298.882812 289.871094 299.273438 289.269531 299.796875 C 287.152344 301.636719 285.316406 304.550781 284.230469 307.804688 C 283.292969 310.597656 282.90625 313.289062 283.097656 315.390625 Z M 265.464844 367.898438 L 265.515625 367.886719 C 265.554688 367.875 265.59375 367.867188 265.632812 367.863281 C 265.667969 367.855469 265.683594 367.847656 265.707031 367.832031 C 265.722656 367.816406 265.734375 367.804688 265.746094 367.785156 C 265.761719 367.726562 265.761719 367.679688 265.753906 367.65625 C 265.722656 367.628906 265.691406 367.597656 265.660156 367.570312 C 265.632812 367.558594 265.613281 367.558594 265.59375 367.5625 C 265.5625 367.566406 265.539062 367.574219 265.515625 367.597656 C 265.484375 367.621094 265.457031 367.644531 265.425781 367.664062 L 265.351562 367.738281 C 265.351562 367.75 265.347656 367.765625 265.34375 367.777344 C 265.347656 367.792969 265.347656 367.8125 265.347656 367.828125 C 265.359375 367.847656 265.371094 367.863281 265.386719 367.878906 C 265.414062 367.886719 265.4375 367.890625 265.464844 367.898438 Z M 249.007812 363.753906 C 248.597656 363.601562 248.082031 363.636719 247.632812 363.855469 C 247.398438 363.96875 246.984375 364.226562 246.832031 364.707031 C 246.519531 365.671875 246.949219 366.644531 247.832031 366.976562 C 248.238281 367.128906 248.753906 367.09375 249.203125 366.875 C 249.4375 366.761719 249.851562 366.503906 250.003906 366.023438 C 250.3125 365.058594 249.886719 364.085938 249.007812 363.753906 Z M 290.367188 378.777344 C 290.65625 378.382812 290.945312 377.769531 291.160156 377.097656 C 291.183594 377.03125 291.203125 376.96875 291.222656 376.902344 C 290.773438 377.359375 290.269531 377.765625 289.71875 378.109375 C 287.367188 379.578125 283.871094 380.125 280.355469 379.578125 C 279.691406 379.472656 279.035156 379.339844 278.402344 379.207031 C 276.472656 378.804688 274.644531 378.425781 272.96875 379.027344 C 275.875 382.273438 280.289062 383.75 284.238281 382.789062 C 286.683594 382.199219 288.976562 380.699219 290.367188 378.777344 Z M 294.40625 380.183594 C 294.253906 380.574219 294.089844 380.957031 293.914062 381.335938 C 293.117188 383.042969 292.074219 384.609375 290.824219 385.992188 C 290.625 386.207031 290.402344 386.417969 290.140625 386.640625 C 289.699219 387.007812 289.210938 387.34375 288.738281 387.667969 C 288.277344 387.984375 287.84375 388.28125 287.46875 388.597656 C 286.503906 389.398438 286.414062 389.886719 286.578125 390.503906 C 286.683594 390.90625 286.867188 391.03125 287.050781 391.105469 C 287.867188 391.441406 289.433594 391.023438 290.414062 390.449219 C 290.78125 390.234375 291.136719 389.984375 291.464844 389.707031 C 292.8125 388.582031 293.824219 386.992188 294.3125 385.226562 C 294.710938 383.800781 294.785156 382.28125 294.535156 380.824219 C 294.5 380.609375 294.453125 380.394531 294.40625 380.183594 Z M 215.234375 367.484375 C 214.015625 366.222656 212.351562 365.328125 210.558594 364.96875 C 209.109375 364.679688 207.585938 364.710938 206.152344 365.066406 C 205.9375 365.121094 205.726562 365.179688 205.523438 365.246094 C 205.921875 365.367188 206.316406 365.503906 206.707031 365.652344 C 208.46875 366.324219 210.105469 367.246094 211.574219 368.394531 C 211.804688 368.574219 212.03125 368.78125 212.269531 369.03125 C 212.671875 369.441406 213.039062 369.90625 213.398438 370.351562 C 213.746094 370.789062 214.078125 371.199219 214.414062 371.550781 C 215.285156 372.453125 215.78125 372.507812 216.382812 372.300781 C 216.773438 372.164062 216.886719 371.972656 216.949219 371.785156 C 217.222656 370.945312 216.695312 369.414062 216.046875 368.476562 C 215.808594 368.128906 215.535156 367.792969 215.234375 367.484375 Z M 193.652344 373.742188 C 193.953125 374.015625 194.234375 374.304688 194.503906 374.613281 C 195.617188 375.898438 196.625 377.40625 197.574219 379.222656 C 198.371094 380.746094 198.960938 382.246094 199.332031 383.675781 C 199.460938 384.183594 199.519531 384.632812 199.570312 385.03125 C 199.675781 385.875 199.738281 386.191406 200.167969 386.617188 C 200.703125 387.152344 201.636719 387.40625 202.257812 386.90625 C 202.964844 386.339844 203.15625 385.40625 203.210938 384.898438 C 203.230469 384.679688 203.234375 384.460938 203.226562 384.242188 C 202.957031 378.867188 198.214844 374.898438 193.652344 373.742188 Z M 137.425781 298.273438 C 137.742188 298.34375 138.039062 298.332031 138.347656 298.234375 C 138.621094 298.148438 138.851562 298.007812 139.054688 297.808594 C 139.085938 297.765625 139.117188 297.726562 139.152344 297.691406 C 139.363281 297.464844 139.5 297.203125 139.566406 296.910156 C 139.636719 296.605469 139.625 296.3125 139.535156 296.027344 C 139.441406 295.738281 139.289062 295.5 139.078125 295.300781 C 138.851562 295.085938 138.589844 294.949219 138.289062 294.882812 C 138.238281 294.871094 138.191406 294.855469 138.144531 294.839844 C 137.851562 294.785156 137.574219 294.804688 137.296875 294.890625 C 136.996094 294.984375 136.746094 295.144531 136.535156 295.367188 C 136.109375 295.820312 135.957031 296.5 136.144531 297.089844 C 136.332031 297.675781 136.835938 298.140625 137.425781 298.273438 Z M 314.34375 350.109375 C 314.046875 350.207031 313.796875 350.363281 313.582031 350.589844 C 313.160156 351.042969 313.007812 351.71875 313.191406 352.3125 C 313.378906 352.894531 313.882812 353.359375 314.476562 353.492188 C 314.789062 353.566406 315.089844 353.550781 315.394531 353.457031 C 315.667969 353.367188 315.898438 353.226562 316.101562 353.027344 C 316.132812 352.988281 316.164062 352.949219 316.199219 352.914062 C 316.410156 352.683594 316.550781 352.425781 316.617188 352.132812 C 316.683594 351.828125 316.671875 351.535156 316.582031 351.25 C 316.488281 350.960938 316.335938 350.71875 316.125 350.519531 C 315.898438 350.308594 315.640625 350.171875 315.335938 350.101562 C 315.289062 350.09375 315.238281 350.078125 315.191406 350.0625 C 314.902344 350.007812 314.621094 350.023438 314.34375 350.109375 Z M 312.375 308.066406 C 312.6875 308.136719 312.988281 308.125 313.292969 308.03125 C 313.566406 307.941406 313.800781 307.800781 314.003906 307.601562 C 314.03125 307.558594 314.0625 307.519531 314.101562 307.484375 C 314.308594 307.257812 314.445312 307 314.515625 306.703125 C 314.582031 306.398438 314.570312 306.109375 314.480469 305.824219 C 314.390625 305.535156 314.238281 305.292969 314.023438 305.09375 C 313.796875 304.878906 313.539062 304.746094 313.234375 304.675781 C 313.1875 304.664062 313.140625 304.648438 313.09375 304.632812 L 313.089844 304.632812 C 312.800781 304.578125 312.519531 304.597656 312.246094 304.683594 C 311.945312 304.777344 311.695312 304.9375 311.484375 305.160156 C 311.058594 305.613281 310.90625 306.292969 311.09375 306.886719 C 311.277344 307.46875 311.785156 307.933594 312.375 308.066406 Z M 268.195312 384.441406 C 267.96875 384.230469 267.710938 384.09375 267.40625 384.023438 C 267.359375 384.011719 267.308594 384 267.265625 383.984375 L 267.261719 383.980469 C 266.972656 383.929688 266.691406 383.945312 266.414062 384.03125 C 266.117188 384.125 265.867188 384.285156 265.65625 384.507812 C 265.230469 384.960938 265.074219 385.640625 265.265625 386.230469 C 265.449219 386.816406 265.953125 387.28125 266.546875 387.414062 C 266.855469 387.484375 267.160156 387.472656 267.464844 387.375 C 267.738281 387.289062 267.96875 387.148438 268.171875 386.949219 C 268.203125 386.90625 268.234375 386.871094 268.269531 386.832031 C 268.480469 386.605469 268.617188 386.34375 268.6875 386.050781 C 268.753906 385.746094 268.742188 385.457031 268.652344 385.171875 C 268.5625 384.882812 268.40625 384.640625 268.195312 384.441406 Z M 253.261719 299.1875 C 251.6875 298.21875 249.558594 297.710938 247.105469 297.71875 C 246.742188 297.71875 246.371094 297.730469 246 297.753906 C 243.121094 297.9375 240.148438 298.8125 237.394531 300.277344 C 234.160156 302 231.464844 304.347656 229.609375 307.0625 C 228.640625 308.480469 227.945312 309.949219 227.554688 311.425781 C 230.738281 308.015625 234.882812 306.480469 238.160156 305.523438 C 240.929688 304.714844 243.78125 304.261719 246.535156 303.824219 L 247.246094 303.710938 C 248.589844 303.496094 250.03125 303.253906 251.453125 302.96875 L 251.597656 302.941406 C 252.546875 302.753906 253.445312 302.574219 254.074219 302.113281 C 254.613281 301.714844 254.664062 301.355469 254.652344 301.117188 C 254.625 300.46875 254.054688 299.675781 253.261719 299.1875 Z M 213.113281 308.007812 C 212.570312 304.65625 212.546875 301.390625 213.046875 298.308594 C 213.195312 297.40625 213.488281 296.457031 213.796875 295.453125 C 214.785156 292.246094 215.261719 290.214844 213.527344 289.0625 C 212.835938 288.605469 212.464844 288.695312 212.339844 288.726562 C 211.015625 289.050781 209.625 292.152344 209.160156 294.84375 C 208.214844 300.34375 210.027344 306.230469 213.621094 310.230469 C 213.417969 309.558594 213.246094 308.824219 213.113281 308.007812 Z M 305.929688 383.160156 C 305.066406 382.859375 304.25 382.578125 303.570312 382.226562 C 301.882812 381.359375 300.292969 380.289062 298.847656 379.0625 C 299.261719 380.09375 299.757812 381.089844 300.347656 382.058594 C 301.792969 384.453125 303.898438 386.246094 306.128906 386.980469 C 307.324219 387.375 309.226562 387.386719 309.984375 386.816406 C 310.128906 386.707031 310.269531 386.566406 310.253906 386.152344 C 310.253906 386.128906 310.25 386.101562 310.25 386.078125 C 310.140625 384.71875 308.3125 383.984375 305.929688 383.160156 Z M 313.351562 316.742188 C 312.640625 317.628906 312.011719 318.546875 311.464844 319.515625 C 313.058594 318.488281 314.777344 317.644531 316.566406 317.007812 C 317.289062 316.753906 318.136719 316.582031 319.03125 316.402344 C 321.5 315.90625 323.414062 315.417969 323.703125 314.089844 C 323.707031 314.0625 323.714844 314.039062 323.714844 314.015625 C 323.785156 313.605469 323.667969 313.445312 323.539062 313.320312 C 322.867188 312.652344 320.976562 312.414062 319.738281 312.644531 C 317.433594 313.070312 315.105469 314.5625 313.351562 316.742188 Z M 278.988281 295.820312 C 279.042969 295.882812 279.097656 295.949219 279.140625 296.019531 C 279.339844 296.332031 279.597656 296.574219 279.929688 296.761719 L 280.980469 297.195312 C 281.175781 297.25 281.367188 297.273438 281.558594 297.273438 C 281.714844 297.273438 281.871094 297.257812 282.027344 297.222656 C 282.109375 297.203125 282.191406 297.191406 282.273438 297.1875 C 282.628906 297.171875 282.957031 297.070312 283.273438 296.886719 L 283.351562 296.828125 C 283.453125 296.75 283.566406 296.6875 283.683594 296.636719 L 283.738281 296.613281 C 284.046875 296.445312 284.28125 296.226562 284.464844 295.941406 C 284.523438 295.847656 284.59375 295.761719 284.667969 295.683594 C 284.785156 295.570312 284.859375 295.445312 284.902344 295.285156 C 284.929688 295.179688 284.96875 295.078125 285.019531 294.980469 C 285.175781 294.679688 285.246094 294.363281 285.242188 294.015625 L 285.117188 293.097656 L 284.765625 292.242188 C 284.605469 291.957031 284.394531 291.726562 284.121094 291.542969 C 284.054688 291.496094 283.988281 291.445312 283.929688 291.390625 C 283.902344 291.367188 283.875 291.347656 283.847656 291.324219 L 283.777344 291.269531 C 283.730469 291.230469 283.683594 291.195312 283.625 291.15625 C 283.582031 291.128906 283.539062 291.101562 283.492188 291.078125 C 283.476562 291.070312 283.464844 291.0625 283.449219 291.050781 C 283.433594 291.046875 283.421875 291.039062 283.410156 291.03125 C 283.324219 290.992188 283.238281 290.957031 283.144531 290.925781 C 283.113281 290.914062 283.082031 290.902344 283.050781 290.890625 L 282.4375 290.636719 C 282.242188 290.585938 282.050781 290.558594 281.859375 290.558594 C 281.707031 290.558594 281.546875 290.574219 281.390625 290.609375 C 281.3125 290.628906 281.226562 290.640625 281.144531 290.644531 C 280.789062 290.660156 280.460938 290.761719 280.148438 290.945312 L 279.273438 291.605469 C 278.996094 291.875 278.804688 292.179688 278.691406 292.539062 C 278.664062 292.621094 278.632812 292.703125 278.589844 292.78125 C 278.425781 293.105469 278.347656 293.445312 278.355469 293.816406 L 278.5 294.894531 C 278.589844 295.25 278.75 295.554688 278.988281 295.820312 Z M 272.109375 294.660156 C 271.953125 294.371094 271.742188 294.140625 271.46875 293.957031 C 271.398438 293.914062 271.335938 293.863281 271.273438 293.808594 C 271.25 293.785156 271.222656 293.761719 271.191406 293.742188 L 271.121094 293.683594 C 271.074219 293.648438 271.027344 293.613281 270.96875 293.574219 C 270.925781 293.542969 270.882812 293.519531 270.839844 293.492188 C 270.824219 293.484375 270.808594 293.476562 270.792969 293.46875 C 270.78125 293.460938 270.769531 293.453125 270.753906 293.449219 C 270.671875 293.40625 270.582031 293.371094 270.492188 293.339844 C 270.457031 293.332031 270.425781 293.316406 270.394531 293.304688 L 269.785156 293.054688 C 269.585938 293 269.398438 292.972656 269.203125 292.972656 C 269.050781 292.972656 268.894531 292.992188 268.738281 293.027344 C 268.65625 293.046875 268.574219 293.054688 268.492188 293.058594 C 268.136719 293.078125 267.808594 293.175781 267.492188 293.359375 L 266.617188 294.023438 C 266.339844 294.292969 266.148438 294.597656 266.035156 294.957031 C 266.011719 295.039062 265.976562 295.121094 265.9375 295.199219 C 265.769531 295.519531 265.691406 295.859375 265.699219 296.234375 L 265.84375 297.3125 C 265.933594 297.667969 266.097656 297.96875 266.335938 298.234375 C 266.390625 298.296875 266.441406 298.363281 266.488281 298.4375 C 266.683594 298.75 266.941406 298.992188 267.273438 299.179688 L 268.328125 299.609375 C 268.523438 299.664062 268.710938 299.691406 268.90625 299.691406 C 269.058594 299.691406 269.214844 299.671875 269.371094 299.636719 C 269.453125 299.617188 269.535156 299.609375 269.617188 299.605469 C 269.976562 299.585938 270.304688 299.488281 270.617188 299.304688 L 270.695312 299.242188 C 270.800781 299.167969 270.910156 299.101562 271.03125 299.054688 L 271.085938 299.03125 C 271.390625 298.863281 271.628906 298.640625 271.8125 298.355469 C 271.871094 298.261719 271.9375 298.179688 272.015625 298.101562 C 272.128906 297.988281 272.203125 297.859375 272.246094 297.699219 C 272.273438 297.59375 272.3125 297.492188 272.363281 297.398438 C 272.519531 297.097656 272.59375 296.78125 272.585938 296.433594 L 272.464844 295.515625 Z M 310.917969 331.457031 C 313.394531 333.269531 315.027344 336.425781 314.878906 339.265625 C 314.871094 339.390625 314.855469 339.515625 314.835938 339.640625 C 314.664062 340.621094 314.046875 341.546875 313.363281 341.835938 C 313.109375 341.945312 312.699219 342.042969 312.085938 341.636719 C 311.566406 341.289062 311.222656 340.511719 311.164062 339.554688 C 311.121094 338.847656 311.207031 338.097656 311.300781 337.304688 C 311.351562 336.898438 311.398438 336.476562 311.429688 336.046875 C 311.566406 334.324219 311.390625 332.789062 310.917969 331.457031 " fill-opacity="1" fill-rule="nonzero"/></svg>