<svg xmlns="http://www.w3.org/2000/svg" width="600" viewBox="0 0 450 450" height="600" version="1.0"><path fill="#571844" d="M112.262 322.027c.933-.015 1.965-.14 1.988-.613.074-1.355-1.742.102-1.941.504-.02.031-.028.07-.047.11Zm-13.957-14.172c1.312.864 3.504 1.704 4.53.145.798-1.207-.683-2.586-1.85-2.527-1.286.062-2.27 1.23-2.68 2.382Zm31.453 33.61c-4.528 1.89-10.016-.34-13.676-3.125-3.93-2.985-6.844-7.258-7.977-12.078-.097-.426-.18-.864-.238-1.301-2.023-.586-3.957-1.535-5.555-2.602-3.601-2.398-6.343-6.164-7.269-10.414a9.922 9.922 0 0 1-.063-3.812 23.97 23.97 0 0 1-.89-.852c-3.828-3.867-7.156-8.613-8.887-13.804-.41-1.243 1.266-1.887 1.856-.758 1.918 3.668 3.914 7.191 6.546 10.394a47.954 47.954 0 0 0 2.207 2.528c.926-1.782 2.512-3.121 4.801-3.317 3.785-.328 6.953 4.172 4.317 7.324-1.98 2.368-4.575 1.97-6.89.704.198 2.152 1.335 4.32 2.57 5.933a14.921 14.921 0 0 0 6.296 4.781c.367.145.746.27 1.125.383a6.663 6.663 0 0 1 .793-1.87c1.133-1.821 3.239-3.13 5.438-2.798 4.77.715 5.117 7.043.539 8.403-.801.238-1.625.355-2.469.39.012.043.02.086.031.125.715 2.563 2.11 4.899 3.907 6.84 3.742 4.04 8.613 5.14 13.511 7.082.813.324.75 1.524-.023 1.844Zm135.777-9.961c-.015-1.723-2.469-3.074-2.883-.824-.238 1.312.688 2.343 1.813 3.093.656-.62 1.074-1.37 1.07-2.27Zm21.485-2.563c-.946 2.125-2.004 3.926-3.907 5.336-1.812 1.344-3.84 2.32-6.004 2.95-3.707 1.078-7.925.976-11.507-.582-.164.128-.329.257-.497.375-7.71 5.418-18.93 3.605-25.75-2.477-.273.2-.546.39-.824.57-5.543 3.653-12.765 4.633-19.02 2.305-5.37-2-11.245-6.73-11.964-12.738-.188-1.59 1.902-2.875 3.012-1.434 2.078 2.715 3.867 5.649 6.675 7.68 2.828 2.043 6.145 3.144 9.637 3.152 3.3.008 6.719-1.004 9.457-2.894-1.047-1.477-1.848-3.188-1.617-4.957.332-2.563 2.883-4.094 5.32-3.336 2.43.757 3.946 3.074 3.621 5.597-.14 1.114-.586 2.121-1.203 3.02 4.016 3.64 9.676 5.418 15.063 4.855 1.281-.133 3.449-.562 5.207-1.425-1.457-1.204-2.496-2.883-2.196-4.864.297-1.96 2.036-3.52 4.067-3.176 1.992.34 3.555 2.297 3.781 4.247.168 1.449-.371 2.8-1.23 3.937 6.93 2.504 15.191-.57 19.668-6.246.078-.098.265-.024.21.105Zm-7.672-19.214c-.957-.965-1.098 1.359-.934 1.777.016.035.035.07.055.11.613-.704 1.21-1.551.879-1.887Zm-17.61-.532c-.36-1.398-2.375-1.226-3.113-.324-.816 1-.61 2.512-.031 3.59 1.52-.399 3.613-1.457 3.144-3.266Zm31.39 10.524c-4.85.914-9.976.21-14.304-2.184a12.913 12.913 0 0 1-1.129-.7 20.422 20.422 0 0 1-5.656 2.38c-4.195 1.066-8.824.57-12.598-1.594a9.914 9.914 0 0 1-2.87-2.508c-.43.043-.84.07-1.231.09-5.434.242-11.188-.473-16.195-2.672-1.2-.523-.56-2.199.68-1.883 4.003 1.036 7.96 1.918 12.105 2.118 1.101.05 2.226.086 3.347.058-.699-1.887-.629-3.957.762-5.789 2.297-3.023 7.762-2.355 8.328 1.711.43 3.055-1.605 4.715-4.097 5.586 1.726 1.297 4.097 1.902 6.12 2.07 2.657.223 5.376-.289 7.77-1.46.356-.176.7-.376 1.04-.579a6.77 6.77 0 0 1-.856-1.84c-.59-2.066-.145-4.503 1.574-5.914 3.727-3.058 8.656.93 6.594 5.239-.36.75-.828 1.445-1.367 2.09.039.019.078.042.117.062 2.375 1.188 5.043 1.719 7.691 1.688 5.508-.067 9.59-2.942 14.313-5.27.785-.387 1.632.465 1.351 1.254-1.633 4.625-6.965 7.195-11.488 8.047ZM67.614 152.012c5.446 1.168 7.239-7.301 1.778-8.473-5.446-1.172-7.235 7.297-1.778 8.473Zm139.774-20.989c5.445 1.172 7.234-7.3 1.777-8.472-5.445-1.172-7.238 7.297-1.777 8.472Zm68.175 17.48c.403.099.801.099 1.188-.007a2.37 2.37 0 0 0 1.129-.41 2.44 2.44 0 0 0 .875-.887c.266-.32.433-.691.504-1.11.129-.78.047-1.644-.422-2.312-.48-.695-1.152-1.203-1.992-1.382a2.396 2.396 0 0 0-1.188.007 2.35 2.35 0 0 0-1.129.414 2.343 2.343 0 0 0-.875.883 2.339 2.339 0 0 0-.504 1.113c-.128.782-.05 1.645.422 2.313.485.691 1.153 1.2 1.993 1.379ZM220.875 305.41c-.867.836-1.559 1.867-1.77 3.067-.253 1.43-.218 3.027.59 4.304.828 1.297 2.04 2.336 3.57 2.703a6.163 6.163 0 0 0 2.946-.027c1.351-.34 2.84-1.453 3.48-2.703.192-.477.387-.953.582-1.434a5.775 5.775 0 0 0-.027-2.941c-.219-1.152-.894-2.16-1.73-2.953-2.153-2.028-5.485-2.094-7.641-.016Zm11.484-15.988c-.867.832-1.554 1.867-1.773 3.066-.25 1.43-.215 3.028.598 4.305.824 1.297 2.035 2.332 3.57 2.7.937.226 1.95.222 2.887-.013l.05-.011c1.356-.344 2.844-1.45 3.489-2.703.191-.477.382-.957.578-1.434.246-.98.234-1.96-.028-2.941-.218-1.153-.89-2.164-1.73-2.954-2.152-2.03-5.484-2.093-7.64-.015Zm14.914-153.55c1.024-.626 1.918-1.49 2.387-2.618.559-1.34.867-2.906.348-4.328-.528-1.446-1.485-2.719-2.903-3.406a6.074 6.074 0 0 0-2.82-.61c-.02 0-.039 0-.058.004-1.395.04-3.086.8-3.985 1.887-.289.422-.582.847-.87 1.273a5.744 5.744 0 0 0-.61 2.88c-.035 1.171.406 2.304 1.054 3.257 1.664 2.445 4.903 3.223 7.457 1.66Zm68.653 68.683c1.11-1.086-1.645-2.64-2.367-3.696-.875-1.277-1.664-2.78-2.395-4.152a32.385 32.385 0 0 1-3.398-10.066c-.368-2.293-.696-4.91-2.551-6.547-1.402-1.239-3.52-1.469-5.145-.559-2.562 1.43-3.074 3.871-2.656 6.336.055 4.305 2.031 8.387 4.734 11.664 2.582 3.137 6.188 6.215 10.168 7.27.926.246 2.766.574 3.61-.25Zm27.613 100.847c-1.547-.086-3.219-.375-4.754-.625a32.461 32.461 0 0 1-10.055-3.437c-2.043-1.102-4.316-2.438-6.742-1.961-1.843.363-3.312 1.898-3.578 3.742-.426 2.902 1.2 4.793 3.406 5.965 3.454 2.582 7.895 3.492 12.137 3.344 4.067-.14 8.7-1.125 11.961-3.64.758-.587 2.137-1.845 1.996-3.017-.183-1.543-3.094-.304-4.37-.37ZM162.188 118.348a32.474 32.474 0 0 1 9.89 3.879c1.336.796 2.797 1.656 4.031 2.593 1.016.774 2.438 3.598 3.578 2.54.864-.801.622-2.653.422-3.59-.859-4.028-3.761-7.774-6.77-10.508-3.144-2.856-7.124-5.032-11.425-5.29-2.441-.53-4.902-.14-6.453 2.348-.988 1.578-.86 3.703.312 5.168 1.543 1.93 4.141 2.383 6.415 2.86Zm154.476 67.965c.258 2.69.863 5.335 1.711 7.906 1.297 3.926 2.84 6.867 6.36 9.191.324.211.714.426 1.09.313.382-.118.593-.551.59-.95-.005-.402-.173-.78-.325-1.148-2.88-6.934-.828-14.914.242-22.031.356-2.364 1.012-5.223-1.258-6.88-1.605-1.171-3.926-1.054-5.539.02-3.953 2.645-3.265 9.508-2.87 13.578ZM255.56 278.66a4.739 4.739 0 0 0-3.668 3.012 4.733 4.733 0 0 0 .773 4.617c1.035 1.262 2.758 1.957 4.375 1.66.094-.015.191-.031.285-.05 1.606-.29 2.969-1.356 3.535-2.903.563-1.516.254-3.191-.746-4.45-.058-.073-.12-.151-.175-.226-1.032-1.289-2.762-1.918-4.38-1.66Zm30.972 23.145c5.746 2.164 9.078-6.782 3.313-8.95-5.746-2.164-9.078 6.782-3.313 8.95Zm-91.949 5.257a42.305 42.305 0 0 0-20.941-8.371c-1.84-.203-5.653-.136-2.301 1.75a47.124 47.124 0 0 1 3.437 2.137 48.931 48.931 0 0 1 6.473 5.293 48.6 48.6 0 0 1 6.883 8.395c1.754 2.707 2.719 4.77 5.539 6.457 3.215 1.922 7.48.52 8.418-3.254 1.215-4.903-4.04-9.754-7.508-12.406Zm-62.55-202.582c-3.227 1.004-5.395 4.84-4.208 8.098 1.203 3.3 4.649 5.281 8.098 4.211 3.226-1.004 5.398-4.84 4.207-8.102-1.203-3.296-4.649-5.277-8.098-4.207Zm-61.11 149.532c-3.227 1.004-5.395 4.84-4.207 8.097 1.203 3.301 4.648 5.282 8.097 4.207 3.227-1 5.399-4.836 4.208-8.097-1.207-3.297-4.649-5.278-8.098-4.207Zm346.426-5.575c-1.203-3.296-4.649-5.277-8.098-4.207-3.223 1-5.395 4.836-4.203 8.098 1.203 3.297 4.648 5.277 8.098 4.207 3.222-1 5.394-4.836 4.203-8.098Zm-39.211-72.308c3.222-1 5.398-4.836 4.207-8.098-1.207-3.297-4.649-5.277-8.102-4.207-3.222 1.004-5.394 4.84-4.203 8.098 1.203 3.3 4.649 5.281 8.098 4.207Zm-160.79 17.2c.145.355.31.706.489 1.046.582 1.086 2.2.71 2.297-.516.004-.007.004-.02.004-.023.12-1.379.308-2.754.531-4.121a62.535 62.535 0 0 1 1.879-8.086c1.676-5.527 3.953-10.86 6.601-15.988 2.258-4.375 5.07-8.286 7.762-12.38 2.461-3.741 3.836-8.616.758-12.445-2.727-3.394-7.016-2.796-9.977-.109-3.023 2.742-5.336 6.637-7.23 10.211-.191.363-.383.73-.57 1.102-3.551 7.07-5.477 14.87-5.551 22.792-.035 3.958.37 7.915 1.14 11.797.442 2.239.989 4.598 1.868 6.72Zm-160.14 13.179c1.648-.125 3.527-.149 5.125.316.34.098.941.281 1.594.504.566.195 1.011-.523.574-.937-3.8-3.614-8.426-5.438-13.645-6.86-5.16-1.402-11.984-1.597-16.097 2.383-2.98 2.875-3.274 8.086.472 10.438 4.051 2.543 8.684.074 12.09-2.309a19.996 19.996 0 0 1 9.887-3.535Zm-6.125-17c5.438 2.887 10.285 6.902 14.086 11.746.45.57 1.367.164 1.25-.547-.883-5.25-2.594-10.113-5.34-14.793-2.812-4.781-7.176-9-12.512-10.828-3.808-1.305-12.125-1.465-11.718 4.543.425 6.305 9.894 7.578 14.234 9.879Zm17.504 21.949c-3.113-.355-6.191-.039-9.133 1.164-6.57 2.688-12.23 9.547-12.918 16.766-.469 4.93 3.313 10.699 8.719 8.14 2.156-1.02 3.418-3.351 3.914-5.687.492-2.332.36-4.746.527-7.121.246-3.535 1.227-7.149 3.575-9.801 1.402-1.586 3.289-2.648 5.332-3.113.195-.047.183-.328-.016-.348Zm345.266 15.895c4.054-1.778 4.523-6.977 2-10.258-3.493-4.54-10.274-5.344-15.582-4.707-5.372.64-10.211 1.77-14.5 4.785-.493.348-.16 1.125.43 1.012.675-.121 1.3-.215 1.652-.266 1.648-.223 3.507.074 5.113.437a20.045 20.045 0 0 1 9.265 4.942c3.016 2.855 7.247 5.976 11.622 4.055ZM402.148 310.3c-1.535-.32-3.093-.113-4.636.054-1.918.211-3.84.282-5.766.344-3.621.121-7.226-.406-10.73-1.281-6.118-1.535-13.961-3.762-18.989-8.156-.293-.262-.714.093-.511.43 3.156 5.187 8.257 9.59 13.187 12.855 4.633 3.074 9.883 5.476 15.152 7.234 3.317 1.106 6.907 2.18 10.434 1.594 3.207-.535 5.848-2.867 6.45-6.117.609-3.285-1.29-6.274-4.59-6.957Zm-209.98-175.832c4.48.96 5.957-6.008 1.465-6.977-4.48-.965-5.957 6.008-1.465 6.977Zm33.394-1.895c2.657.574 5.407-1.242 5.958-3.894.562-2.68-1.227-5.387-3.895-5.961-2.656-.57-5.402 1.246-5.96 3.898-.56 2.68 1.23 5.387 3.898 5.957Zm59.555 23.668c3.817.82 5.07-5.113 1.246-5.937-3.816-.82-5.07 5.113-1.246 5.937Zm-24.64-13.918c6.148 1.324 8.171-8.242 2.003-9.57-6.148-1.32-8.171 8.246-2.003 9.57Zm-163.899 9.88c1.563.636.328-1.388.145-1.895-.403-1.098-.61-2.286-.672-3.45-.184-3.367 1.066-6.359 2.922-9.093 2.304-3.399 6.023-5.407 9.46-7.48 4-2.415 11.56-6.782 8.372-12.61-3.285-6.012-11.047-2.512-15.043.5-2.364 1.785-4.461 3.46-6.293 5.82-1.766 2.274-2.992 5.047-3.856 7.781-.867 2.75-1.258 5.715-1.195 8.598.098 4.41 1.64 9.988 6.16 11.828Zm237.871 49.081c.52 1.434 1.25 2.746 2.25 3.871.317.36.793.727 1.235.528.43-.192.48-.774.468-1.246-.234-8.293 3.668-17.18 10.032-22.586 4.785-4.063 13.03-7.098 11.808-14.872-.465-2.933-2.722-5.273-5.707-5.613-3.023-.347-5.992 1.281-8.2 3.2-4.89 4.242-8.468 10.515-10.503 16.601-1.844 5.512-3.602 13.953-1.383 20.117Zm-90.195 74.664c3.031 1.14 4.785-3.578 1.75-4.719-3.031-1.14-4.785 3.575-1.75 4.72Zm56.508 23.66c.332.25.695.403 1.097.461.383.121.774.145 1.18.067l.324-.078a3.118 3.118 0 0 0 1.504-.684c.442-.36.762-.809.961-1.344.25-.781.266-1.613-.078-2.379a2.346 2.346 0 0 0-.754-1.011 2.332 2.332 0 0 0-1.035-.668 3.12 3.12 0 0 0-1.594-.157 3.135 3.135 0 0 0-1.508.676c-.09.063-.18.13-.273.192-.191.203-.379.406-.566.609a2.39 2.39 0 0 0-.465 1.094c-.09.254-.118.515-.075.785-.02.402.06.789.239 1.164.25.5.605.93 1.043 1.273Zm-36.64-9.312c-1.024 3.191.41 6.7 3.636 7.914 3.02 1.137 6.902-.48 7.918-3.637 1.023-3.191-.414-6.699-3.64-7.914-3.013-1.137-6.9.485-7.915 3.637Zm88.526 29.539c1.641-2.262 2.903-6.445 2.778-9.234a12.346 12.346 0 0 0-.54-3.157c-.23-.746-.425-1.441-.706-2.097-.211-.493-.953-.368-.98.172-.18 3.648-2.548 6.98-5.645 8.914-4.485 2.808-10.88 3.21-15.985 2.414-5.363-.84-10.77-2.914-16.101-.72-1.668.685-1.887 3-.797 4.235 5.992 6.817 15.629 10.442 24.578 8.27 5.219-1.266 10.238-4.442 13.398-8.797Zm7.098-2.926a18.138 18.138 0 0 0-1.195-2.242c-.168-.262-.434-.742-.688-.914-.722-.488-.902.773-1.039 1.234-.215.735-.34 1.492-.558 2.23a32.473 32.473 0 0 1-1.75 4.622 33.02 33.02 0 0 1-5.45 8.21c-3.02 3.329-10.355 5.419-8.785 11.317 1.387 5.211 8.23 3.61 11.586 1.633 4.336-2.55 7.45-6.895 8.785-11.719a22.312 22.312 0 0 0 .493-9.691 19.398 19.398 0 0 0-1.399-4.68Zm-149.543-20.14c-2.855-4.137-7.418-6.926-12.324-7.907a22.344 22.344 0 0 0-9.703.211 19.59 19.59 0 0 0-4.567 1.738c-.75.399-1.46.856-2.148 1.356-.25.184-.707.484-.86.75-.437.754.833.848 1.301.945.75.164 1.52.23 2.27.399a33.01 33.01 0 0 1 13.32 6.246c3.543 2.77 6.156 9.933 11.926 7.941 5.098-1.762 3-8.472.785-11.68Zm-44.71 8.914c-2.727-.68-6.016-1.704-8.81-.825-3.855 1.215 1.56 2.606 2.829 3.297a17.574 17.574 0 0 1 4.851 3.89c2.18 2.509 3.973 5.345 5.516 8.29 1.309 2.504 2.426 5.176 3.129 7.922.691 2.68.133 4.742 2.36 6.957 2.07 2.062 5.448 2.672 7.831.758 2.211-1.77 3.059-4.77 2.926-7.493-.555-11.054-10.035-20.16-20.633-22.796ZM56.48 166.609c1.102.246 2.188.2 3.262-.136a6.249 6.249 0 0 0 2.672-1.684c.035-.05.07-.098.11-.14a6.145 6.145 0 0 0 1.359-6.024 6.122 6.122 0 0 0-4.48-4.117c-.055-.02-.114-.035-.169-.059a6.178 6.178 0 0 0-3.254.14 6.262 6.262 0 0 0-2.675 1.684 6.275 6.275 0 0 0-1.387 6.137 6.271 6.271 0 0 0 4.562 4.2Zm339.434 105.868a6.151 6.151 0 0 0 3.258-.133 6.331 6.331 0 0 0 2.676-1.688c.03-.047.066-.094.105-.14a6.12 6.12 0 0 0 1.363-6.024 6.177 6.177 0 0 0-1.66-2.62 6.04 6.04 0 0 0-2.824-1.493c-.055-.024-.11-.04-.168-.059a6.219 6.219 0 0 0-3.254.137 6.256 6.256 0 0 0-2.676 1.688 6.284 6.284 0 0 0-1.386 6.136 6.278 6.278 0 0 0 4.566 4.196Zm-4.027-87.09c1.101.246 2.183.199 3.258-.133a6.34 6.34 0 0 0 2.675-1.691c.032-.047.07-.094.106-.141a6.118 6.118 0 0 0 1.363-6.02 6.197 6.197 0 0 0-1.656-2.62 6.084 6.084 0 0 0-2.824-1.497c-.059-.02-.118-.039-.168-.058a6.232 6.232 0 0 0-5.934 1.824 6.284 6.284 0 0 0-1.387 6.137 6.284 6.284 0 0 0 4.567 4.199ZM309.77 326.902a6.12 6.12 0 0 0-2.825-1.496c-.058-.02-.113-.035-.168-.054a6.137 6.137 0 0 0-3.254.136 6.233 6.233 0 0 0-2.675 1.688 6.273 6.273 0 0 0-1.387 6.137 6.273 6.273 0 0 0 4.562 4.195c1.098.246 2.188.199 3.258-.133a6.284 6.284 0 0 0 2.676-1.688c.035-.046.07-.093.106-.144a6.12 6.12 0 0 0 1.363-6.02 6.169 6.169 0 0 0-1.656-2.62Zm-78.301-147.867c-2.035 2.973-3.625 6.27-4.485 9.785-.617 2.512-.742 5.371-.402 7.946.082.62.453 1.422 1.059 1.27.39-.102.554-.552.675-.934.664-2.09 1.797-4.028 3.262-5.665 5.184-5.796 12.149-8.84 19.457-10.968 5.582-1.63 11.34-2.485 17.07-3.403 2.73-.437 5.457-.894 8.172-1.433 2.13-.43 4.371-.832 6.164-2.153 4.211-3.093 1.977-8.07-1.75-10.363-3.937-2.418-8.753-3.254-13.316-3.242-6.906.016-13.832 1.973-19.965 5.242-6.242 3.328-11.93 8.055-15.941 13.918Zm-23.18 15.68c.734.45 1.578-.383 1.149-1.125-2.09-3.63-3.598-6.7-4.387-11.574-.946-5.82-1.074-11.848-.13-17.68 1.017-6.234 6.77-15.867-.323-20.574-7.684-5.098-11.868 7.644-12.79 12.988-2.449 14.242 3.962 30.324 16.481 37.965ZM376.945 322.21c-5.472-2.816-10.367-6.777-14.23-11.57-.453-.567-1.371-.149-1.238.566.941 5.234 2.71 10.078 5.52 14.723 2.866 4.746 7.284 8.91 12.644 10.672 3.824 1.257 12.14 1.312 11.66-4.688-.5-6.297-9.985-7.453-14.356-9.703Zm8.914-110.215c4.47-4.234 9.848-7.504 15.653-9.559 4.629-1.644 14.18-1.519 15.523-7.695 1.277-5.883-6.969-6.941-10.926-6.207-5.55 1.031-10.484 4.563-13.96 8.883-3.407 4.227-5.805 8.789-7.446 13.852-.223.687.629 1.222 1.156.726Zm-59.488-50.973a6.993 6.993 0 0 0 2.703 2.485l2.305.949a6.989 6.989 0 0 0 3.574.137 6.988 6.988 0 0 0 3.379-1.063c.086-.062.176-.133.27-.203.078-.031.16-.062.242-.098a6.684 6.684 0 0 0 2.582-2.347 4.503 4.503 0 0 0 1.187-2.063c.551-1.058.801-2.195.746-3.414l-.304-2.27-.871-2.113a6.64 6.64 0 0 0-2.243-2.503c-.132-.125-.277-.235-.418-.348a7.793 7.793 0 0 0-.977-.664c-.062-.035-.112-.074-.171-.106a3.983 3.983 0 0 0-.121-.047 6.579 6.579 0 0 0-.871-.359c-.438-.18-.88-.36-1.317-.543a6.972 6.972 0 0 0-3.57-.137 6.962 6.962 0 0 0-3.379 1.063l-1.922 1.453a7.006 7.006 0 0 0-2 3.129 6.956 6.956 0 0 0-.773 3.547l.32 2.355a6.981 6.981 0 0 0 1.63 3.16Zm-24.262 4.633a6.993 6.993 0 0 0 2.704 2.485l2.308.949a7.016 7.016 0 0 0 3.57.14 7.058 7.058 0 0 0 3.38-1.062c.09-.07.179-.14.269-.207.082-.035.16-.066.242-.098a6.664 6.664 0 0 0 2.582-2.351 4.533 4.533 0 0 0 1.191-2.059c.547-1.062.793-2.2.743-3.414l-.305-2.266c-.29-.707-.578-1.41-.867-2.12a6.67 6.67 0 0 0-2.246-2.5c-.13-.126-.278-.239-.414-.348-.028-.02-.051-.04-.075-.059a5.725 5.725 0 0 0-.468-.34 6.208 6.208 0 0 0-.438-.265c-.058-.036-.113-.075-.172-.106-.039-.015-.078-.031-.117-.05a7.397 7.397 0 0 0-.871-.356c-.438-.184-.883-.363-1.32-.543a6.974 6.974 0 0 0-3.57-.137 6.948 6.948 0 0 0-3.376 1.063c-.64.484-1.285.968-1.925 1.453a7.04 7.04 0 0 0-1.997 3.125 6.894 6.894 0 0 0-.773 3.547l.316 2.36a7.001 7.001 0 0 0 1.63 3.16Zm85.735 70.352c.273-3.531-.168-7.246-2.102-10.215-1.156-1.777-2.867-3.102-4.824-3.863-.184-.07-.133-.352.066-.34 3.133.101 6.133.863 8.871 2.484 6.102 3.621 10.7 11.23 10.325 18.477-.258 4.949-4.844 10.101-9.813 6.777-1.984-1.324-2.894-3.816-3.043-6.195-.144-2.38.336-4.75.52-7.125"/><path fill="#d91023" d="M346.496 211.824c1.856-3.789 3.688-7.55 5.5-11.34 1.79-3.746 4.57-7.117 7.137-10.367 4.469-5.652 16.894-.195 11.355 5.926-5.472 6.047-11.02 12.27-15.16 19.293-2.332 3.95-11.117 1.164-8.832-3.512Zm-157.98 45.188c.425-6.887 2.21-13.938 4.777-20.325 1.863-4.648 5.191-12.957 10.934-13.832 7.543-1.152 8.066 10.188 6.46 14.907-2.164 6.34-7.09 11.758-11.875 16.285-3.222 3.05-6.656 5.601-10.246 7.836a36.644 36.644 0 0 1-.05-4.871Zm216.726 25.11c-.226-1.267-1.86-1.47-2.828-1.099-3.02 1.141-4.965 3.954-7.726 5.582-2.59 1.524-5.805 2.805-8.848 2.852-5.953.102-10.473-4.512-13.442-9.207-3.582-5.668-4.675-12.328-4.343-18.95.425-8.476 4.09-16.515 4.023-24.933-.039-4.633-8.25-4.894-10.297-1.812-3.011 4.53-4.242 10.25-5.379 15.52-1.086 5-1.695 10.116-1.433 15.234-1.66 3.945-3.52 7.707-6.246 11.304-1.54 2.024-3.286 3.989-5.555 5.137-11.777 5.969-14.711-12.316-14.211-20.035.73-11.238 8.203-23.57 1.996-34.426-1.945-3.406-8.367-3.934-9.668.25-1.023 3.293-.965 6.922-1.52 10.336-.566 3.54-1.445 7.004-2.308 10.48l-.129.56c-1.89 4.065-4.316 7.882-7.238 11.28-2.645 3.082-5.75 5.883-9.488 7.457-4.864 2.055-12.047 2.141-14.16-3.64-1.622-4.422-1.196-9.25-.184-13.746 2.254-9.993 5.797-19.817 8.746-29.621.726-2.41-1.988-4.711-3.895-5.477-2.554-1.02-5.46-.723-7.648.937-5.031 3.82-12.8 8.118-19.281 5.504-6.102-2.46-7.618-8.433-6.61-14.265.961-5.547-8.984-7.653-11.496-3.25-2.262 3.969-2.191 8.23-.726 12.18-4.41 12.48-10.41 24.269-17.52 35.538-4.594 7.282-9.43 14.434-16.629 19.29-4.879 3.293-14.043 8.128-18.914 2.289-1.281-1.536-2.176-3.598-2.777-5.829 4.887-2.84 9.433-6.28 13.449-10.015 8.68-8.078 20.016-22.047 11.926-34.133-3.235-4.836-8.778-8.078-14.68-7.101-6.543 1.082-11.226 6.07-14.441 11.546-6.313 10.758-12.114 27.078-8.219 39.805-3.945 1.774-8.016 3.371-12.164 4.953-1.738.66.098 2.535 1.293 2.45 4.39-.317 8.715-1.317 12.898-2.829 3.18 4.969 9.211 8.285 14.852 9.282 1.043.183 2.207.289 3.41.293 5.184.105 10.863-2.153 14.777-4.422 7.625-4.418 13.297-11.47 18.207-18.637 7.657-11.172 13.621-23.375 18.29-36.063 2.66 3.25 6.105 5.899 9.519 7.403 6.465 2.851 13.395 2.699 19.926.77-.77 2.667-1.54 5.327-2.309 7.995-1.887 6.547-4.273 13.461-2.914 20.352 1.094 5.547 5.055 9.898 10.14 12.277 1.778.832 4.934 1.875 7.653 1.801 9.192.316 18.254-6.305 24.133-13.016-.211 2.32-.258 4.664-.05 7.043.667 7.848 5.726 15.403 13.015 18.57 7.91 3.442 17.086.567 23.183-5.113 2.078-1.937 3.727-4.062 5.118-6.316 1.699 5.734 4.757 11.203 9.164 14.961 6.593 5.633 14.941 7.418 23.359 5.945 3.863-.68 7.422-2.289 10.566-4.62 2.637-1.962 6.29-4.993 5.633-8.622Zm-313.12-80.29c-.384-2.14-.731-4.281-1.06-6.43a190.855 190.855 0 0 1 8.844-21.14c4.942-10.059 10.735-20.086 18.953-27.84 7.254-6.84 17.516-12.594 27.856-10.961 23.23 3.66 21.847 30.875 18.555 48.61-3.528 18.976-12.372 36.952-24.856 51.652-8.289 9.765-18.14 18.152-29.133 24.582-9.078-18.489-15.554-38.176-19.16-58.473Zm53.327 108.79a217.012 217.012 0 0 1-11.09-13.161c-6.523-8.395-12.351-17.324-17.539-26.602 31.164-16.714 54.688-47.183 61.86-82.144 4.363-21.23 3.027-52.164-22.84-58.418-10.13-2.45-21.914-1.008-31.164 3.75-10.574 5.441-18.578 14.75-24.805 24.687-4.05 6.477-7.617 13.32-10.687 20.383-.297-5.746-.114-11.676-1.192-17.238-.945-4.902-10.441-6.238-11.62-.856-1.278 5.84-.505 12.497-.15 18.422a214.33 214.33 0 0 0 1.798 17.743c.484 3.402 1.074 6.789 1.742 10.164a149.666 149.666 0 0 0-2.739 14.921c-.523 4.008-.8 8.07-1.058 12.098-.242 3.82.5 7.332.601 11.137.028.976 2.137 1.195 2.266.168.39-3.102 1.57-5.922 1.992-9 .414-3.059.88-6.106 1.535-9.121.344-1.61.704-3.211 1.067-4.813.91 3.278 1.883 6.54 2.93 9.77a233.97 233.97 0 0 0 13.796 33.441c-4.488 1.945-9.117 3.59-13.882 4.863-2.997.801-5.133 3.489-3.668 6.547 1.449 3.04 5.941 4.27 8.98 3.469 4.8-1.258 9.484-2.852 14.05-4.71a230.343 230.343 0 0 0 14.06 21.733 218.639 218.639 0 0 0 12.757 15.899c4.531 5.129 9.504 11.875 16.063 14.355 2.43.922 9.168.293 7.843-3.972-1.714-5.5-7.117-9.364-10.906-13.516"/><path fill="#ffc300" d="M69.777 148.07c.145-.66.086-1.496-.992-1.726-1.043-.223-1.422.492-1.562 1.133-.141.66-.086 1.492.996 1.726 1.043.223 1.422-.492 1.558-1.133Zm138.211-19.851c1.047.222 1.43-.496 1.567-1.133.136-.664.086-1.496-.996-1.727-1.043-.226-1.422.489-1.563 1.13-.14.66-.082 1.495.992 1.73Zm68.153 17.472c.066-.011.129-.027.191-.035a2.23 2.23 0 0 1 .11-.156v-.14a.543.543 0 0 0-.18-.153c-.063.016-.125.027-.188.04l-.105.155a.781.781 0 0 0 0 .137c.047.063.11.125.172.152Zm-48.715 163.223c-.09-.445-.403-.941-.883-1.398a2.73 2.73 0 0 0-1.902-.766 2.55 2.55 0 0 0-1.778.727c-.363.355-.824.902-.93 1.507-.18.985-.113 1.786.188 2.254.348.551.945 1.246 1.813 1.453.25.059.507.09.77.086.257 0 .51-.03.737-.086l.067-.02c.558-.14 1.3-.683 1.586-1.148l.43-1.062a2.9 2.9 0 0 0-.051-1.332 2.113 2.113 0 0 1-.047-.215Zm11.484-15.988c-.086-.446-.398-.946-.883-1.403a2.723 2.723 0 0 0-1.898-.761 2.52 2.52 0 0 0-1.777.726c-.368.352-.829.899-.934 1.504-.176.988-.11 1.79.187 2.258.352.547.946 1.242 1.817 1.453.246.059.504.09.766.086.261 0 .507-.031.738-.086l.066-.02c.559-.14 1.301-.683 1.586-1.148l.43-1.062c.086-.45.074-.887-.051-1.332a2.113 2.113 0 0 1-.047-.215Zm3.281-160.328a2.733 2.733 0 0 0 1.688 1.152c.46.102 1.16.121 1.894-.328.438-.262 1-.7 1.239-1.266.383-.926.488-1.722.3-2.246-.222-.61-.656-1.418-1.46-1.808a2.935 2.935 0 0 0-.73-.25 3.299 3.299 0 0 0-.743-.075l-.066.004c-.579.016-1.415.387-1.797.781l-.649.946c-.18.418-.258.847-.238 1.308.004.075.004.153.004.223-.016.457.183 1.008.558 1.559Zm66.438 65.46a35.226 35.226 0 0 1-3.7-10.964l-.054-.36c-.281-1.777-.574-3.617-1.559-4.484-.488-.434-1.285-.523-1.847-.207a2.815 2.815 0 0 0-.73.559c-.54.593-.704 1.53-.493 2.789.024.148.04.297.04.441.038 3.223 1.484 6.73 4.077 9.875 1.785 2.168 3.785 3.914 5.754 5.063-.496-.848-.949-1.7-1.37-2.497Zm13.91 104.137c-.64.13-1.195.703-1.289 1.34-.05.34-.05.652 0 .926.14.785.785 1.492 1.91 2.086.133.07.258.152.38.238 2.577 1.934 6.241 2.918 10.315 2.777 2.81-.097 5.41-.62 7.516-1.484-.973-.125-1.926-.285-2.808-.43l-.25-.039a35.046 35.046 0 0 1-10.946-3.742l-.32-.172c-1.578-.86-3.219-1.75-4.508-1.5ZM173.762 119.891c.773.457 1.605.953 2.425 1.484-1.05-2.02-2.699-4.098-4.78-5.988-3.016-2.742-6.446-4.356-9.665-4.551a2.788 2.788 0 0 1-.441-.059c-1.246-.273-2.192-.152-2.809.36-.21.172-.414.41-.594.703-.343.543-.293 1.344.118 1.855.816 1.024 2.644 1.403 4.41 1.77l.351.074a34.99 34.99 0 0 1 10.77 4.223Zm145.758 66.144c.226 2.34.757 4.79 1.582 7.281.226.688.457 1.329.699 1.934-.254-4.387.488-8.805 1.172-12.871.187-1.113.359-2.164.515-3.207.032-.188.063-.379.09-.57.336-2.125.387-3.141-.195-3.567-.34-.246-.86-.34-1.39-.246a2.309 2.309 0 0 0-.86.332c-2.504 1.676-1.93 7.64-1.617 10.84Zm-61.832 96.074a1.663 1.663 0 0 0-.723-.507 1.877 1.877 0 0 0-.957-.106 1.885 1.885 0 0 0-1.426 1.172 1.864 1.864 0 0 0 .3 1.8c.204.243.485.442.802.563.293.11.582.14.84.094l.288-.05c.645-.118 1.149-.52 1.356-1.075.203-.55.094-1.172-.3-1.664Zm31.144 13.43c-.71-.266-1.113-.121-1.352.008-.386.21-.722.629-.914 1.144-.203.547-.515 1.864.977 2.426 1.45.547 2.066-.62 2.266-1.152.203-.543.515-1.863-.977-2.426Zm-95.996 13.805a39.077 39.077 0 0 0-12.496-6.363c-.133-.043-.266-.083-.399-.122a51.247 51.247 0 0 1 10.602 11.848c.277.43.539.844.785 1.242 1.266 2.02 2.024 3.235 3.817 4.309 1.164.695 2.632.574 3.5-.29.32-.312.539-.71.656-1.187.594-2.402-1.758-5.84-6.465-9.437Zm-59.953-202.121c-.875.273-1.672.992-2.137 1.925-.242.485-.59 1.454-.226 2.45.722 1.976 2.68 3.027 4.55 2.449.875-.274 1.676-.992 2.137-1.926.242-.484.59-1.45.223-2.45-.72-1.976-2.676-3.03-4.547-2.448Zm-61.11 149.53c-.875.274-1.671.993-2.136 1.927-.242.484-.59 1.449-.227 2.445.723 1.98 2.68 3.031 4.55 2.45.876-.274 1.673-.99 2.138-1.927.242-.484.59-1.445.222-2.445-.722-1.976-2.675-3.031-4.547-2.45Zm342.88-7.331c-.723-1.977-2.68-3.031-4.551-2.45-.875.27-1.672.993-2.133 1.923-.242.488-.59 1.453-.227 2.453.723 1.976 2.68 3.027 4.551 2.445.875-.27 1.672-.992 2.133-1.922.242-.484.59-1.453.226-2.45Zm-37.368-76.031c.88-.278 1.676-.996 2.137-1.926.238-.488.59-1.45.223-2.45-.723-1.976-2.676-3.03-4.551-2.449-.871.27-1.668.993-2.133 1.926-.238.485-.59 1.45-.227 2.446.723 1.98 2.68 3.03 4.551 2.453ZM232.75 154.328c.586-.875 1.176-1.754 1.758-2.644 1.383-2.098 3.336-6.067.922-9.067a3.505 3.505 0 0 0-1.118-.949c-1.316-.684-3.16-.227-4.695 1.164-2.746 2.492-4.89 6.168-6.617 9.43-.184.347-.367.695-.543 1.047-3.363 6.687-5.176 14.132-5.246 21.53-.031 3.641.332 7.411 1.082 11.212.023.117.05.23.074.351a64.037 64.037 0 0 1 1.434-5.605c1.633-5.39 3.855-10.777 6.797-16.477 1.84-3.558 4.03-6.832 6.152-9.992ZM50.102 202.305c-4.383-1.192-10.196-1.38-13.352 1.672-.914.882-1.438 2.144-1.406 3.375.02.777.281 1.859 1.41 2.57 2.066 1.297 4.898.586 8.918-2.23a22.727 22.727 0 0 1 9.348-3.81c-1.63-.636-3.286-1.132-4.918-1.577Zm-2.47-24.504c-2.28-.781-5.929-.856-7.394.219-.281.207-.554.472-.535 1.27.004.046.004.093.008.144.176 2.601 3.668 4.062 8.21 5.695 1.653.594 3.208 1.156 4.505 1.84a47.684 47.684 0 0 1 8.976 6.183 38.987 38.987 0 0 0-2.8-5.78c-2.715-4.626-6.715-8.114-10.97-9.571Zm1.763 51.855c-.024.235-.032.48-.028.727.047 1.902.965 3.832 2.176 4.578.457.273 1.203.578 2.48-.027 1.082-.512 1.954-1.887 2.332-3.684.282-1.332.325-2.777.372-4.313.023-.785.043-1.597.105-2.421.227-3.305.988-6.168 2.258-8.563-5.203 2.746-9.18 8.281-9.695 13.703Zm363.304-4.933c1.223-.54 1.64-1.567 1.774-2.336.21-1.215-.125-2.54-.899-3.547-2.68-3.477-8.453-4.145-12.96-3.606-1.684.203-3.4.457-5.098.844a22.833 22.833 0 0 1 8.691 5.133c3.563 3.375 6.262 4.492 8.492 3.512Zm-11.137 88.39c-.988-.207-2.183-.074-3.449.067l-.289.03c-2.004.216-3.976.298-5.984.36-3.594.121-7.36-.328-11.524-1.37-2.191-.548-4.398-1.141-6.558-1.825a53.88 53.88 0 0 0 2.531 1.781c4.18 2.77 9.05 5.094 14.473 6.903 3.156 1.05 6.222 1.957 9.054 1.484 2.125-.356 3.739-1.848 4.098-3.805.191-1.015-.031-1.953-.617-2.644-.422-.496-1.02-.836-1.735-.98ZM192.774 131.66c.22.047.543.117.684-.543.059-.277.012-.504-.043-.613-.023-.035-.078-.137-.387-.203-.214-.051-.539-.117-.68.539-.062.281-.015.508.044.617.023.035.078.137.382.203Zm33.391-1.89c.516.113 1.094-.008 1.582-.329.504-.328.856-.816.969-1.351.234-1.121-.555-2.32-1.692-2.563-.515-.113-1.09.008-1.582.328-.504.329-.855.817-.964 1.348-.235 1.121.554 2.324 1.687 2.567Zm59.504 23.652a.662.662 0 0 1 .055.016c.007 0 .015 0 .027.003a.746.746 0 0 0 .059-.316.915.915 0 0 0-.079-.016.679.679 0 0 0-.062.313Zm-24.59-13.902c1.613.343 2.082-.98 2.207-1.563.13-.602.25-2.035-1.406-2.394-.883-.188-1.293.12-1.426.222-.371.285-.66.774-.781 1.344-.129.598-.246 2.035 1.406 2.39Zm-148.906-22.168c-2.43-.524-6.203 1.25-8.684 3.12-1.383 1.044-2.515 1.93-3.535 2.88a19.937 19.937 0 0 0-2.215 2.402c-1.355 1.75-2.496 4.066-3.386 6.887-.754 2.39-1.125 5.043-1.063 7.672.016.84.094 1.714.242 2.582.504-2.23 1.52-4.465 3.063-6.743a17.613 17.613 0 0 1 2.617-3.011c2.078-1.934 4.46-3.352 6.762-4.727.328-.195.652-.39.976-.586l.29-.176c1.687-1.015 3.784-2.277 5.386-3.765 2.855-2.653 2.078-4.07 1.664-4.832-.535-.98-1.187-1.504-2.117-1.703Zm224.215 79.273c1.574-6.54 5.207-12.734 10.191-16.96 1.227-1.044 2.617-1.997 3.969-2.919 4.66-3.187 7.484-5.348 6.86-9.32-.274-1.73-1.56-3.02-3.196-3.211-.758-.082-1.59.031-2.469.351-1.148.41-2.367 1.16-3.527 2.164-4.055 3.528-7.578 9.118-9.66 15.352-1.793 5.36-2.54 10.512-2.168 14.543Zm-33.809 100.668.102-.027c.07-.016.148-.032.222-.043a.26.26 0 0 0 .137-.059.275.275 0 0 0 .078-.09c.028-.11.035-.203.012-.25-.059-.05-.117-.11-.172-.164a.256.256 0 0 0-.129-.012.287.287 0 0 0-.156.07c-.055.044-.11.087-.168.126l-.024.02-.117.12a.415.415 0 0 1-.015.075c.004.035.004.066.004.101a.604.604 0 0 0 .074.094c.054.012.101.023.152.039Zm-31.55-7.945c-.786-.297-1.77-.223-2.633.195-.45.21-1.247.71-1.54 1.633-.593 1.844.227 3.715 1.918 4.347.782.297 1.77.223 2.633-.191.446-.219 1.239-.715 1.535-1.633.59-1.847-.23-3.719-1.914-4.351Zm79.296 28.8c.547-.753 1.102-1.93 1.52-3.218.043-.125.078-.25.117-.375a15.764 15.764 0 0 1-2.883 2.312c-4.504 2.817-11.21 3.867-17.95 2.813-1.269-.196-2.526-.457-3.745-.707-3.7-.77-7.203-1.496-10.418-.348 5.574 6.223 14.035 9.055 21.61 7.215 4.683-1.133 9.077-4.008 11.75-7.692Zm7.738 2.7a35.984 35.984 0 0 1-6.867 11.133c-.375.414-.804.82-1.308 1.242-.848.707-1.782 1.347-2.688 1.972-.883.606-1.715 1.176-2.433 1.778-1.848 1.543-2.024 2.476-1.711 3.656.203.773.558 1.012.91 1.156 1.566.64 4.566-.156 6.45-1.262.698-.41 1.378-.89 2.015-1.418 2.582-2.16 4.52-5.207 5.457-8.59.758-2.734.906-5.652.43-8.44a17.47 17.47 0 0 0-.255-1.227Zm-151.785-24.352c-2.34-2.418-5.523-4.129-8.96-4.82a19.47 19.47 0 0 0-8.454.187c-.406.102-.812.215-1.207.344.766.234 1.524.496 2.274.781a35.748 35.748 0 0 1 9.332 5.258c.441.344.875.742 1.336 1.215.765.793 1.472 1.68 2.16 2.535.668.836 1.3 1.625 1.953 2.297 1.668 1.73 2.613 1.84 3.77 1.441.753-.261.968-.629 1.085-.992.528-1.61-.488-4.543-1.726-6.34a15.344 15.344 0 0 0-1.563-1.906Zm-41.375 12a19.903 19.903 0 0 1 1.63 1.668c2.14 2.465 4.07 5.356 5.89 8.836 1.527 2.926 2.66 5.797 3.367 8.54.25.972.36 1.839.457 2.6.207 1.618.32 2.22 1.149 3.04 1.027 1.027 2.812 1.515 4.011.554 1.348-1.086 1.719-2.879 1.82-3.851.04-.414.051-.84.028-1.258-.512-10.305-9.602-17.91-18.352-20.129ZM57.11 163.81a3.37 3.37 0 0 0 1.762-.07 3.464 3.464 0 0 0 1.36-.821c.054-.082.117-.156.183-.223.406-.437.668-.933.8-1.5a3.202 3.202 0 0 0-.066-1.687 3.23 3.23 0 0 0-2.387-2.203 2.187 2.187 0 0 1-.273-.078h-.004a3.353 3.353 0 0 0-3.082 1.012 3.4 3.4 0 0 0-.75 3.304 3.424 3.424 0 0 0 2.457 2.266Zm339.184 99.379a3.402 3.402 0 0 0-1.461.917 3.409 3.409 0 0 0-.75 3.31c.356 1.116 1.324 2.007 2.457 2.26a3.29 3.29 0 0 0 1.762-.07 3.383 3.383 0 0 0 1.36-.824c.058-.074.12-.148.187-.219.402-.437.668-.933.797-1.5a3.245 3.245 0 0 0-.063-1.687 3.293 3.293 0 0 0-.875-1.398 3.243 3.243 0 0 0-1.516-.801 2.394 2.394 0 0 1-.273-.078h-.004a3.341 3.341 0 0 0-1.621.09Zm-3.777-80.606a3.277 3.277 0 0 0 1.757-.07 3.388 3.388 0 0 0 1.364-.82c.054-.079.117-.153.183-.223.407-.438.668-.934.797-1.5a3.207 3.207 0 0 0-.062-1.688 3.286 3.286 0 0 0-.88-1.398 3.194 3.194 0 0 0-1.51-.801 2.187 2.187 0 0 1-.274-.078h-.004a3.295 3.295 0 0 0-1.621.094 3.418 3.418 0 0 0-1.461.914 3.418 3.418 0 0 0-.75 3.308 3.417 3.417 0 0 0 2.46 2.262Zm-84.7 146.426a3.267 3.267 0 0 0-1.515-.805 2.368 2.368 0 0 1-.274-.074l-.004-.004a3.345 3.345 0 0 0-1.62.094 3.381 3.381 0 0 0-1.458.914 3.401 3.401 0 0 0-.75 3.308c.356 1.122 1.32 2.012 2.457 2.266a3.332 3.332 0 0 0 1.762-.07 3.386 3.386 0 0 0 1.356-.825c.058-.078.12-.148.187-.222.406-.434.668-.934.797-1.496.129-.582.11-1.14-.063-1.688a3.255 3.255 0 0 0-.875-1.398Zm-28.628-163.445c-3.024-1.856-7.102-2.829-11.805-2.817-.695 0-1.41.024-2.117.066-5.52.352-11.227 2.028-16.504 4.836-6.203 3.305-11.364 7.805-14.922 13.008-1.863 2.723-3.188 5.535-3.945 8.367 6.105-6.539 14.05-9.48 20.34-11.312 5.312-1.55 10.773-2.422 16.054-3.262l1.36-.219c2.578-.41 5.343-.87 8.066-1.417l.277-.051c1.824-.367 3.543-.707 4.75-1.59 1.031-.762 1.125-1.453 1.106-1.91-.051-1.246-1.145-2.766-2.66-3.7Zm-76.973 16.91c-1.043-6.426-1.086-12.688-.125-18.598.281-1.727.84-3.547 1.433-5.473 1.895-6.152 2.809-10.047-.515-12.25-1.324-.879-2.04-.707-2.278-.648-2.542.621-5.207 6.57-6.093 11.734-1.813 10.543 1.66 21.825 8.547 29.492a33.098 33.098 0 0 1-.97-4.257ZM380.16 326.55c-1.656-.574-3.219-1.113-4.527-1.785a47.702 47.702 0 0 1-9.055-6.07 39.65 39.65 0 0 0 2.875 5.745c2.774 4.59 6.813 8.032 11.082 9.434 2.297.754 5.945.781 7.395-.313.277-.21.55-.48.52-1.273a1.79 1.79 0 0 1-.009-.144c-.21-2.602-3.718-4.016-8.28-5.594Zm14.223-127.332a39.949 39.949 0 0 0-3.617 5.312 47.791 47.791 0 0 1 9.785-4.804c1.387-.489 3.008-.817 4.722-1.16 4.739-.954 8.403-1.887 8.957-4.438.008-.047.02-.094.028-.14.137-.782-.094-1.09-.344-1.333-1.289-1.277-4.906-1.738-7.281-1.297-4.422.817-8.887 3.684-12.25 7.86Zm-65.875-40.117c.105.12.207.25.293.39a4.11 4.11 0 0 0 1.508 1.418l2.015.828c.38.106.746.157 1.113.157.293 0 .598-.036.895-.102.156-.035.313-.055.473-.063a4.155 4.155 0 0 0 1.914-.578l.152-.113a2.66 2.66 0 0 1 .64-.363l.106-.047a3.753 3.753 0 0 0 1.39-1.293c.11-.18.243-.34.391-.488a1.63 1.63 0 0 0 .446-.77c.05-.2.129-.394.222-.578.301-.578.438-1.188.426-1.852l-.234-1.761-.672-1.64a3.796 3.796 0 0 0-1.238-1.337 3.894 3.894 0 0 1-.368-.293c-.05-.05-.105-.09-.156-.129l-.137-.11a4.122 4.122 0 0 0-.542-.362 2.41 2.41 0 0 0-.086-.051c-.028-.012-.055-.028-.079-.04a4.855 4.855 0 0 0-.503-.206c-.063-.02-.122-.043-.184-.067l-1.172-.48a4.162 4.162 0 0 0-2.008-.055 2.373 2.373 0 0 1-.472.063c-.68.039-1.309.226-1.914.578l-1.676 1.27a4.185 4.185 0 0 0-1.113 1.788c-.051.16-.114.317-.192.465a4.065 4.065 0 0 0-.457 1.985l.277 2.066a4.11 4.11 0 0 0 .942 1.77Zm-13.188-2.223a3.829 3.829 0 0 0-1.23-1.344 2.954 2.954 0 0 1-.371-.289 5.499 5.499 0 0 0-.156-.129l-.137-.105c-.09-.07-.18-.14-.293-.215-.078-.055-.164-.102-.25-.152-.028-.016-.059-.032-.086-.051-.027-.012-.05-.024-.078-.035a3.885 3.885 0 0 0-.504-.207c-.063-.02-.121-.043-.184-.067l-1.168-.48a4.115 4.115 0 0 0-1.113-.157c-.297 0-.594.036-.895.102a2.748 2.748 0 0 1-.472.063 4.155 4.155 0 0 0-1.914.578l-1.68 1.27a4.185 4.185 0 0 0-1.113 1.788c-.047.16-.113.317-.192.465a4.023 4.023 0 0 0-.457 1.984l.282 2.067c.171.68.48 1.262.937 1.77.11.12.207.25.293.386a4.09 4.09 0 0 0 1.508 1.422l2.02.832c.374.098.738.148 1.109.148a4.1 4.1 0 0 0 .894-.097c.157-.035.313-.059.473-.063a4.217 4.217 0 0 0 1.918-.578l.148-.117c.196-.145.41-.27.641-.363l.105-.043a3.763 3.763 0 0 0 1.391-1.297c.113-.176.246-.34.39-.485.223-.222.364-.468.446-.77.055-.198.129-.398.223-.581.3-.574.441-1.184.43-1.848l-.239-1.761Zm74.403 70.55c4.746 3.473 7.875 9.528 7.59 14.97-.012.238-.04.48-.083.722-.324 1.879-1.515 3.649-2.82 4.207-.492.211-1.277.399-2.453-.387-.992-.664-1.652-2.152-1.766-3.984-.086-1.36.086-2.797.266-4.32.094-.782.184-1.586.25-2.407.254-3.304-.078-6.25-.984-8.8"/></svg>