<svg xmlns="http://www.w3.org/2000/svg" width="500" viewBox="0 0 375 375" height="500" version="1.0"><path fill="#ffd230" d="M375 189.496V187.5c0 103.555-83.871 187.43-187.43 187.43C84.016 374.93 0 291.055 0 187.5h5.137C5.137 86.797 86.727 5.207 187.43 5.207S369.723 86.797 369.723 187.5v1.855Zm0 0V187.5c0 103.555-83.871 187.43-187.43 187.43C84.016 374.93 0 291.055 0 187.5h5.137C5.137 86.797 86.727 5.207 187.43 5.207S369.723 86.797 369.723 187.5v1.855Zm0 0"/><path fill="#571844" d="M187.43.07C83.87.07 0 83.945 0 187.5s83.871 187.43 187.43 187.43C290.984 374.93 375 291.055 375 187.5S290.984.07 187.43.07Zm118.39 305.82c-31.523 31.524-73.746 49.07-118.39 49.07-44.649 0-86.727-17.546-118.25-49.07-31.664-31.523-49.067-73.745-49.067-118.39 0-44.645 17.403-86.727 49.067-118.25 31.523-31.664 73.601-49.066 118.25-49.066 44.644 0 86.722 17.402 118.39 49.066 31.524 31.523 49.067 73.746 49.067 118.395 0 44.644-17.543 86.722-49.067 118.246Zm0 0"/><path fill="#ff5733" d="M275.152 99.918c-23.535-23.535-54.632-36.371-87.722-36.371-33.094 0-64.188 12.836-87.582 36.371-23.535 23.394-36.371 54.488-36.371 87.582 0 33.094 12.836 64.332 36.37 87.723 23.395 23.394 54.489 36.375 87.583 36.375 33.09 0 64.328-12.98 87.722-36.375 23.395-23.391 36.371-54.489 36.371-87.578 0-33.094-12.976-64.333-36.37-87.727Zm-35.09 162.469-52.492-27.672-52.492 27.672 9.988-58.485-42.507-41.363 58.765-8.559 26.246-53.207 26.246 53.207 58.77 8.56-42.508 41.362Zm0 0"/></svg>