<svg xmlns="http://www.w3.org/2000/svg" width="500" viewBox="0 0 375 375" height="500" version="1.0"><path fill="#ffd230" d="M187.5 0C83.965 0 0 83.965 0 187.5S83.965 375 187.5 375 375 291.035 375 187.5 291.035 0 187.5 0Zm0 0"/><path fill="#fff" d="M210.703 109.887c-2.344-3.024-5.52-4.535-9.45-4.535-3.476 0-5.82.68-7.1 1.964-1.286 1.36-3.934 4.836-8.09 10.657-4.157 5.742-8.84 10.957-14.208 15.644-5.363 4.684-12.468 9.067-21.386 13.301-5.969 2.793-10.13 5.062-12.547 6.875-2.34 1.738-3.55 4.535-3.55 8.312 0 3.25 1.21 6.125 3.628 8.618 2.418 2.492 5.137 3.703 8.238 3.703 6.496 0 19.117-7.18 37.86-21.613V253.55c0 5.894 1.363 10.355 4.082 13.379 2.722 3.023 6.347 4.535 10.882 4.535 10.13 0 15.192-7.406 15.192-22.219V122.43c0-5.29-1.211-9.524-3.55-12.543"/></svg>