<svg xmlns="http://www.w3.org/2000/svg" width="500" viewBox="0 0 375 375" height="500" version="1.0"><path fill="#d91023" d="M187.5 0C83.965 0 0 83.965 0 187.5S83.965 375 187.5 375 375 291.035 375 187.5 291.035 0 187.5 0Zm0 0"/><path fill="#fff" d="M241.688 246.07c-3.024-2.343-7.407-3.55-13.153-3.55h-57.812c1.812-2.797 3.629-5.215 5.441-7.18 4.156-4.988 11.79-12.094 22.824-21.164 11.11-9.067 19.043-15.719 23.73-19.95 4.684-4.234 9.372-10.128 13.907-17.609 4.531-7.48 6.8-15.797 6.8-24.941 0-5.817-1.058-11.485-3.25-16.852-2.19-5.441-5.214-10.203-9.144-14.36-3.93-4.155-8.465-7.405-13.605-9.75-7.934-3.55-17.606-5.288-28.867-5.288-9.371 0-17.536 1.36-24.489 4.156-6.953 2.797-12.695 6.426-17.304 10.883-4.536 4.535-7.934 9.523-10.203 15.039-2.266 5.52-3.403 10.883-3.403 15.945 0 4.235 1.211 7.559 3.63 9.977 2.417 2.418 5.515 3.629 9.218 3.629 4.234 0 7.406-1.36 9.601-4.004 2.192-2.649 4.157-6.426 5.895-11.414 1.738-4.91 2.945-7.934 3.703-9.07 5.516-8.462 13.148-12.696 22.82-12.696 4.614 0 8.77 1.059 12.7 3.098 3.851 2.043 6.953 4.988 9.218 8.691 2.266 3.703 3.403 7.938 3.403 12.7 0 4.382-1.059 8.765-3.176 13.374-2.117 4.61-5.137 8.993-9.219 13.301-4.008 4.309-9.07 8.617-15.117 12.922-3.399 2.27-9.066 7.106-16.926 14.36-7.937 7.257-16.777 16.023-26.605 26.148-2.34 2.496-4.532 5.972-6.496 10.355-1.965 4.383-3.024 7.934-3.024 10.582 0 4.157 1.586 7.707 4.684 10.805 3.097 3.098 7.406 4.61 12.926 4.61h81.468c4.836 0 8.54-1.282 10.883-3.778 2.418-2.492 3.625-5.594 3.625-9.219-.148-4.156-1.66-7.406-4.684-9.75"/></svg>