<svg xmlns="http://www.w3.org/2000/svg" width="500" viewBox="0 0 375 375" height="500" version="1.0"><path fill="#571844" d="M187.5 0C83.965 0 0 83.965 0 187.5S83.965 375 187.5 375 375 291.035 375 187.5 291.035 0 187.5 0Zm0 0"/><path fill="#fff" d="M241.61 203.824c-1.965-4.836-4.985-9.219-8.915-13.226-3.933-4.004-8.77-7.555-14.586-10.657 5.97-4.988 10.578-10.203 13.754-15.418 3.172-5.289 4.836-11.636 4.836-18.968 0-5.59-1.133-10.883-3.324-15.72-2.191-4.835-5.52-9.144-9.824-12.847-4.387-3.703-9.45-6.5-15.418-8.465-5.895-1.964-12.473-2.945-19.574-2.945-8.164 0-15.645 1.133-22.22 3.477-6.573 2.343-12.167 5.441-16.628 9.218-4.457 3.856-7.86 7.86-10.2 12.094-2.343 4.23-3.476 8.313-3.476 12.09 0 4.008 1.207 7.18 3.703 9.598 2.492 2.418 5.215 3.629 8.16 3.629 2.497 0 4.688-.454 6.653-1.36 1.887-.91 3.25-2.117 4.004-3.629 1.285-2.87 2.644-5.968 4.156-9.218 1.512-3.25 3.098-5.895 4.836-7.938 1.664-2.039 4.008-3.703 6.953-4.988 2.95-1.285 6.652-1.887 11.11-1.887 6.652 0 11.94 2.04 15.796 6.121 3.93 4.078 5.895 8.992 5.895 14.66 0 7.48-2.418 13.149-7.332 17.157-4.91 4.003-10.73 5.968-17.531 5.968h-4.536c-5.214 0-9.218 1.059-11.867 3.25-2.644 2.192-4.004 5.063-4.004 8.618 0 3.625 1.133 6.421 3.324 8.464 2.192 2.04 5.368 3.02 9.45 3.02.906 0 2.87-.149 5.968-.453 3.098-.301 5.368-.453 6.88-.453 8.386 0 14.96 2.418 19.722 7.332 4.688 4.914 7.105 11.714 7.105 20.328 0 5.82-1.359 10.96-4.156 15.418-2.797 4.46-6.273 7.785-10.504 10.05-4.234 2.27-8.691 3.403-13.226 3.403-7.938 0-14.133-2.496-18.516-7.48-4.383-4.989-8.539-12.622-12.32-22.825-.606-1.664-1.813-3.176-3.778-4.383-1.89-1.21-3.93-1.816-5.972-1.816-4.156 0-7.555 1.285-10.352 3.93-2.797 2.644-4.156 6.047-4.156 10.355 0 3.324 1.133 7.559 3.477 12.621 2.343 5.063 5.742 10.051 10.277 14.813 4.535 4.761 10.277 8.691 17.305 11.863 7.03 3.176 14.964 4.762 23.808 4.762 8.692 0 16.625-1.36 23.88-4.157 7.257-2.796 13.378-6.574 18.667-11.488 5.215-4.91 9.223-10.504 11.867-16.777 2.719-6.27 4.004-12.77 4.004-19.496-.226-5.594-1.207-10.809-3.176-15.645"/></svg>